<svg width="690" height="246" viewBox="0 0 690 246" fill="none" xmlns="http://www.w3.org/2000/svg">
<path d="M0 150.333L104.537 3.41666H182.769V150.333H216.931V198.167H182.769V242.583H131.525V198.167H0V150.333ZM58.076 150.333H131.525V46.4667L58.076 150.333Z" fill="white"/>
<path d="M343.265 0C381.072 0 408.401 9.79445 425.255 29.3833C442.336 48.7444 450.877 79.95 450.877 123C450.877 166.05 442.336 197.369 425.255 216.958C408.401 236.319 381.072 246 343.265 246C305.687 246 278.357 236.319 261.275 216.958C244.194 197.369 235.654 166.05 235.654 123C235.654 79.95 244.194 48.7444 261.275 29.3833C278.357 9.79445 305.687 0 343.265 0ZM286.897 123C286.897 148.967 291.452 167.986 300.562 180.058C309.672 192.131 323.907 198.167 343.265 198.167C363.307 198.167 377.655 192.244 386.31 180.4C395.192 168.556 399.633 149.422 399.633 123C399.633 96.35 395.192 77.2167 386.31 65.6C377.655 53.7556 363.307 47.8333 343.265 47.8333C323.907 47.8333 309.672 53.8694 300.562 65.9417C291.452 77.7861 286.897 96.8056 286.897 123Z" fill="white"/>
<path d="M473.069 150.333L577.606 3.41666H655.838V150.333H690V198.167H655.838V242.583H604.594V198.167H473.069V150.333ZM531.145 150.333H604.594V46.4667L531.145 150.333Z" fill="white"/>
</svg>
