<svg width="30" height="30" viewBox="0 0 30 30" fill="none" xmlns="http://www.w3.org/2000/svg">
<path d="M22.5211 16.0318C22.3003 16.0318 22.0694 15.9614 21.8487 15.9111C21.4015 15.8122 20.9621 15.6811 20.5339 15.5185C20.0683 15.3486 19.5566 15.3575 19.0971 15.5433C18.6376 15.7291 18.2629 16.0788 18.045 16.525L17.8242 16.978C16.8467 16.4326 15.9485 15.7553 15.1546 14.9649C14.3666 14.1688 13.6912 13.2679 13.1474 12.2876L13.5689 12.0057C14.0139 11.7872 14.3626 11.4114 14.5478 10.9506C14.7331 10.4898 14.7419 9.9765 14.5725 9.50956C14.4132 9.07919 14.2824 8.63871 14.1811 8.19101C14.1309 7.96957 14.0908 7.73807 14.0607 7.50657C13.9388 6.79759 13.5686 6.15555 13.0166 5.69607C12.4646 5.23659 11.7672 4.98986 11.0499 5.00032H8.03908C7.60656 4.99625 7.17824 5.08569 6.78328 5.26255C6.38832 5.43941 6.036 5.69955 5.75029 6.02525C5.46459 6.35094 5.25221 6.73456 5.12761 7.14997C5.00302 7.56539 4.96914 8.00285 5.02827 8.43257C5.56293 12.6493 7.48311 16.5672 10.4855 19.5674C13.4879 22.5676 17.4014 24.4791 21.6078 25H21.9892C22.7292 25.0011 23.4438 24.7288 23.9964 24.235C24.3139 23.9502 24.5675 23.6011 24.7405 23.2107C24.9135 22.8203 25.0019 22.3976 25 21.9704V18.9508C24.9877 18.2516 24.7338 17.5784 24.2817 17.0461C23.8296 16.5138 23.2073 16.1553 22.5211 16.0318ZM23.0229 22.071C23.0227 22.2139 22.9922 22.3552 22.9333 22.4853C22.8745 22.6155 22.7887 22.7316 22.6816 22.8259C22.5695 22.923 22.4384 22.9955 22.2967 23.0389C22.1549 23.0822 22.0058 23.0954 21.8587 23.0775C18.1001 22.5942 14.6089 20.8697 11.9358 18.176C9.26267 15.4824 7.55977 11.9729 7.09569 8.20107C7.07972 8.05363 7.09372 7.90448 7.13684 7.76262C7.17996 7.62076 7.25132 7.48914 7.34659 7.37572C7.44064 7.26836 7.55641 7.18231 7.68619 7.1233C7.81597 7.0643 7.9568 7.03368 8.09929 7.0335H11.1101C11.3435 7.02829 11.5714 7.10484 11.7546 7.24998C11.9377 7.39511 12.0647 7.59974 12.1137 7.82866C12.1538 8.10378 12.204 8.37554 12.2642 8.64394C12.3802 9.17453 12.5345 9.69594 12.7259 10.2041L11.3209 10.8583C11.2007 10.9136 11.0927 10.9921 11.0029 11.0894C10.9131 11.1867 10.8433 11.3008 10.7977 11.4252C10.752 11.5496 10.7312 11.6818 10.7366 11.8142C10.742 11.9467 10.7734 12.0767 10.8291 12.197C12.2735 15.2999 14.7605 17.7941 17.8543 19.2427C18.0987 19.3433 18.3727 19.3433 18.6171 19.2427C18.7422 19.1978 18.8572 19.1284 18.9554 19.0385C19.0536 18.9487 19.1331 18.8402 19.1891 18.7193L19.8113 17.3101C20.3302 17.4962 20.8597 17.6508 21.397 17.7731C21.6647 17.8335 21.9356 17.8839 22.21 17.9241C22.4382 17.9732 22.6422 18.1006 22.787 18.2843C22.9317 18.468 23.008 18.6966 23.0028 18.9306L23.0229 22.071Z" fill="#00BCB6"/>
</svg>
