<svg width="50" height="50" viewBox="0 0 50 50" fill="none" xmlns="http://www.w3.org/2000/svg">
<path fill-rule="evenodd" clip-rule="evenodd" d="M24.0703 0.212673C23.3666 0.627636 23.0213 1.19551 22.9556 2.04616C22.9309 2.36546 22.8807 2.6669 22.8441 2.71603C22.8076 2.76515 22.7491 3.20727 22.7143 3.69851C22.6513 4.5872 22.5935 4.79236 22.1548 5.68499C21.8569 6.29109 21.4547 6.55385 20.9314 6.48401C20.7258 6.45659 20.5432 6.39139 20.5257 6.33914C20.5081 6.2868 20.4391 6.24402 20.3721 6.24402C20.2092 6.24402 19.3108 5.2284 19.029 4.72564C18.905 4.50458 18.66 4.04237 18.4844 3.69851C17.9922 2.73461 17.7197 2.39404 17.1844 2.07393C16.7488 1.8134 16.6161 1.77892 16.0473 1.77857L15.4032 1.77821L14.9142 2.22256C14.5504 2.5532 14.3961 2.77051 14.3114 3.07151C14.1237 3.73798 14.2641 4.87971 14.6466 5.79744C14.6773 5.87112 14.7145 5.9917 14.7293 6.06538C14.744 6.13907 14.8239 6.48071 14.9067 6.82457C15.0493 7.41736 15.1013 8.26408 15.0242 8.73755C14.9766 9.02943 14.4949 9.52183 14.1802 9.60034C13.7822 9.69966 12.8068 9.31364 12.0995 8.77685C11.8822 8.61188 11.6831 8.47692 11.6573 8.47692C11.6313 8.47692 11.2494 8.16432 10.8085 7.78222C9.84444 6.94658 9.34403 6.73802 8.44048 6.79528C7.98884 6.82386 7.79958 6.87914 7.63853 7.02955C7.52256 7.13789 7.38989 7.22792 7.34372 7.2298C7.29746 7.23159 7.14368 7.41495 7.00194 7.63726C6.75762 8.02052 6.74621 8.08295 6.78241 8.83597C6.82023 9.62392 6.82391 9.63464 7.24222 10.1702C7.47415 10.4672 7.66386 10.7358 7.66386 10.7673C7.66386 10.7988 7.84575 11.0363 8.06807 11.295C8.29039 11.5538 8.47228 11.7923 8.47228 11.8252C8.47228 11.8581 8.71481 12.1801 9.01123 12.5408C9.30765 12.9016 9.55017 13.2578 9.55017 13.3323C9.55017 13.407 9.5906 13.4929 9.64 13.5233C9.79872 13.6208 9.73306 14.2269 9.52386 14.5951C9.22285 15.1249 8.80724 15.2466 7.82797 15.0918C7.41657 15.0267 7.03958 14.9431 6.99017 14.9061C6.94077 14.8689 6.71845 14.8093 6.49614 14.7735C6.27382 14.7377 6.05151 14.6831 6.0021 14.6521C5.85201 14.5578 4.41886 14.2691 3.86536 14.2216C3.57936 14.197 3.29641 14.2152 3.23658 14.262C3.17667 14.3088 3.00645 14.3755 2.85824 14.4102C2.53748 14.4851 1.91509 15.0577 1.91509 15.2778C1.91509 15.3632 1.87466 15.4579 1.82526 15.4882C1.65558 15.5925 1.72403 16.5249 1.93287 16.9537C2.27295 17.6524 2.74983 18.0193 4.38131 18.8376C5.41079 19.3539 6.04845 19.7353 6.37515 20.03C6.81187 20.4239 6.85544 20.4976 6.85544 20.8425C6.85544 21.2719 6.63878 21.7723 6.41889 21.8508C6.33787 21.8797 6.16918 21.9739 6.04396 22.0599C5.91884 22.1459 5.66571 22.2444 5.48157 22.2787C5.29743 22.3131 5.12461 22.3768 5.09757 22.4203C5.07053 22.4639 4.93759 22.4996 4.80214 22.4996C4.66668 22.4996 4.51748 22.5358 4.47059 22.5801C4.42362 22.6245 3.79934 22.7097 3.08316 22.7697C1.29745 22.9189 0.496217 23.2824 0.143565 24.1031C-0.157886 24.8048 0.0355064 25.914 0.535739 26.3523C0.843389 26.622 1.63663 26.9654 1.95173 26.9654C2.12339 26.9654 2.28876 27.0056 2.3193 27.0547C2.34984 27.1038 2.64527 27.1446 2.97582 27.1454C4.06683 27.1481 5.58262 27.31 6.05205 27.4739C6.42078 27.6026 6.54842 27.7021 6.68468 27.9666C6.88912 28.3634 6.89694 28.5433 6.7269 28.9418C6.56423 29.3231 5.70281 30.1531 5.05895 30.549C4.78723 30.716 4.48407 30.9023 4.38526 30.9629C4.28645 31.0235 3.90623 31.2441 3.54019 31.4531C2.19857 32.2194 1.73544 32.8322 1.73544 33.8414C1.73544 34.4188 1.75017 34.4594 2.10569 34.861C2.69773 35.5298 3.04032 35.6592 4.0857 35.6092C4.58997 35.5851 5.01933 35.5202 5.09649 35.4565C5.17033 35.3956 5.27129 35.3707 5.32087 35.4011C5.37037 35.4316 5.48328 35.4165 5.57175 35.3676C5.74601 35.2714 7.17422 34.9003 7.39438 34.894C7.46849 34.8919 7.56954 34.8592 7.61895 34.8214C7.66835 34.7836 7.91088 34.7236 8.15789 34.6883C8.40491 34.653 8.65148 34.589 8.70591 34.5461C8.8146 34.4604 9.5482 34.8136 9.54946 34.9521C9.54982 34.9974 9.61655 35.1073 9.69776 35.1966C9.89941 35.4181 9.88881 36.0642 9.67809 36.3942C9.5861 36.5383 9.34798 36.8653 9.14875 37.1208C8.66828 37.7374 8.2744 38.2885 8.1305 38.5457C8.06609 38.6609 7.9751 38.7551 7.92839 38.7551C7.88168 38.7551 7.84351 38.8105 7.84351 38.8782C7.84351 38.9458 7.77847 39.0549 7.69898 39.1205C7.61948 39.1861 7.39088 39.4824 7.19102 39.7789C6.86119 40.2684 6.82364 40.3827 6.78466 41.0182C6.74837 41.6081 6.77154 41.7778 6.93206 42.0974C7.2777 42.7854 7.81872 43.084 8.69684 43.071C9.44068 43.0601 9.90759 42.8484 10.788 42.1228C11.8424 41.254 11.9542 41.1666 12.0124 41.1666C12.0445 41.1666 12.3304 40.9476 12.648 40.6797C13.4372 40.0139 13.7069 39.8862 14.1758 39.9561C14.5912 40.0181 14.843 40.2372 15.0246 40.6947C15.2252 41.2002 15.0568 42.6213 14.6299 44.0248C14.2771 45.1847 14.2043 45.599 14.2431 46.2261C14.2747 46.7347 14.3358 46.9481 14.5438 47.2755C14.6874 47.5015 14.8555 47.6865 14.9172 47.6866C14.979 47.6866 15.0298 47.7168 15.0302 47.7537C15.0314 47.8695 15.5062 48.0513 15.9495 48.1057C16.8135 48.2118 17.6913 47.6391 18.3277 46.5543C18.5146 46.2359 18.7568 45.8279 18.8661 45.6476C18.9755 45.4673 19.147 45.1792 19.2474 45.0072C19.8602 43.9575 20.3084 43.3276 20.524 43.2129C20.6326 43.1551 20.9087 43.1078 21.1375 43.1078C21.9131 43.1078 22.3951 43.5431 22.3951 44.2434C22.3951 44.4192 22.4321 44.6329 22.4774 44.7182C22.5226 44.8035 22.6213 45.436 22.6966 46.1237C22.9243 48.2035 23.0642 48.7126 23.5512 49.2351C23.8021 49.5041 24.3985 49.8303 24.6396 49.8303C24.7193 49.8303 24.8329 49.8786 24.8922 49.9375C24.976 50.0208 25.024 50.0208 25.1078 49.9375C25.1671 49.8786 25.2807 49.8303 25.3604 49.8303C25.6015 49.8303 26.1979 49.5041 26.4488 49.2351C26.9358 48.7126 27.0757 48.2035 27.3034 46.1237C27.3787 45.436 27.4774 44.8035 27.5226 44.7182C27.5679 44.6329 27.6049 44.4192 27.6049 44.2434C27.6049 43.5431 28.0869 43.1078 28.8625 43.1078C29.0913 43.1078 29.3675 43.1551 29.476 43.2129C29.6916 43.3276 30.1398 43.9575 30.7526 45.0072C30.853 45.1792 31.0245 45.4673 31.1339 45.6476C31.2432 45.8279 31.4854 46.2359 31.6723 46.5543C32.3087 47.6391 33.1865 48.2118 34.0505 48.1057C34.4938 48.0513 34.9686 47.8695 34.9698 47.7537C34.9702 47.7168 35.0211 47.6866 35.0828 47.6866C35.1446 47.6865 35.3126 47.5015 35.4562 47.2755C35.6642 46.9481 35.7253 46.7347 35.7569 46.2261C35.7957 45.599 35.7229 45.1847 35.3701 44.0248C34.6063 41.5136 34.7625 40.1145 35.8242 39.9561C36.2931 39.8862 36.5628 40.0139 37.352 40.6797C37.6696 40.9476 37.9555 41.1666 37.9876 41.1666C38.0458 41.1666 38.1576 41.254 39.212 42.1228C40.0924 42.8484 40.5593 43.0601 41.3032 43.071C42.1813 43.084 42.7223 42.7854 43.0679 42.0974C43.2285 41.7778 43.2516 41.6081 43.2153 41.0182C43.1764 40.3827 43.1388 40.2684 42.809 39.7789C42.6091 39.4824 42.3805 39.1861 42.301 39.1205C42.2215 39.0549 42.1565 38.9458 42.1565 38.8782C42.1565 38.8105 42.1183 38.7551 42.0716 38.7551C42.0249 38.7551 41.9339 38.6609 41.8695 38.5457C41.7256 38.2885 41.3317 37.7374 40.8513 37.1208C40.652 36.8653 40.4139 36.5383 40.3219 36.3942C40.1112 36.0642 40.1006 35.4181 40.3022 35.1966C40.3834 35.1073 40.4502 34.9974 40.4505 34.9521C40.4518 34.8136 41.1854 34.4604 41.2941 34.5461C41.3485 34.589 41.5951 34.653 41.8421 34.6883C42.0891 34.7236 42.3316 34.7836 42.3811 34.8214C42.4305 34.8592 42.5315 34.8919 42.6056 34.894C42.8258 34.9003 44.254 35.2714 44.4282 35.3676C44.5167 35.4165 44.6296 35.4316 44.6791 35.4011C44.7287 35.3707 44.8297 35.3956 44.9035 35.4565C44.9807 35.5202 45.41 35.5851 45.9143 35.6092C46.9597 35.6592 47.3023 35.5298 47.8943 34.861C48.2498 34.4594 48.2646 34.4188 48.2646 33.8414C48.2646 32.8322 47.8014 32.2194 46.4598 31.4531C46.0938 31.2441 45.7135 31.0235 45.6147 30.9629C45.5159 30.9023 45.2128 30.716 44.9411 30.549C44.2972 30.1531 43.4358 29.3231 43.2731 28.9418C43.1031 28.5433 43.1109 28.3634 43.3153 27.9666C43.4516 27.7021 43.5792 27.6026 43.948 27.4739C44.4174 27.31 45.9332 27.1481 47.0242 27.1454C47.3547 27.1446 47.6502 27.1038 47.6807 27.0547C47.7112 27.0056 47.8766 26.9654 48.0483 26.9654C48.3634 26.9654 49.1566 26.622 49.4643 26.3523C49.9645 25.914 50.1579 24.8048 49.8564 24.1031C49.5038 23.2824 48.7025 22.9189 46.9168 22.7697C46.2007 22.7097 45.5763 22.6245 45.5294 22.5801C45.4825 22.5358 45.3333 22.4996 45.1979 22.4996C45.0624 22.4996 44.9295 22.4639 44.9024 22.4203C44.8754 22.3768 44.7026 22.3131 44.5184 22.2787C44.3343 22.2444 44.0812 22.1459 43.956 22.0599C43.8308 21.9739 43.6621 21.8797 43.5811 21.8508C43.3612 21.7723 43.1446 21.2719 43.1446 20.8425C43.1446 20.4976 43.1881 20.4239 43.6249 20.03C43.9515 19.7353 44.5892 19.3539 45.6187 18.8376C47.2502 18.0193 47.7271 17.6524 48.0671 16.9537C48.276 16.5249 48.3444 15.5925 48.1747 15.4882C48.1253 15.4579 48.0849 15.3632 48.0849 15.2778C48.0849 15.0577 47.4625 14.4851 47.1418 14.4102C46.9935 14.3755 46.8233 14.3088 46.7634 14.262C46.7036 14.2152 46.4207 14.197 46.1346 14.2216C45.5812 14.2691 44.148 14.5578 43.9979 14.6521C43.9485 14.6831 43.7262 14.7377 43.5039 14.7735C43.2815 14.8093 43.0592 14.8689 43.0098 14.9061C42.9604 14.9431 42.5834 15.0267 42.172 15.0918C41.1928 15.2466 40.7771 15.1249 40.4761 14.5951C40.2669 14.2269 40.2013 13.6208 40.36 13.5233C40.4094 13.4929 40.4498 13.407 40.4498 13.3323C40.4498 13.2578 40.6924 12.9016 40.9888 12.5408C41.2852 12.1801 41.5277 11.8581 41.5277 11.8252C41.5277 11.7923 41.7096 11.5538 41.9319 11.295C42.1542 11.0363 42.3361 10.7988 42.3361 10.7673C42.3361 10.7358 42.5259 10.4672 42.7578 10.1702C43.1761 9.63464 43.1798 9.62392 43.2176 8.83597C43.2538 8.08295 43.2424 8.02052 42.9981 7.63726C42.8563 7.41495 42.7025 7.23159 42.6563 7.2298C42.6101 7.22792 42.4774 7.13789 42.3615 7.02955C42.2004 6.87914 42.0112 6.82386 41.5595 6.79528C40.656 6.73802 40.1556 6.94658 39.1915 7.78222C38.7506 8.16432 38.3687 8.47692 38.3427 8.47692C38.3169 8.47692 38.1178 8.61188 37.9005 8.77685C37.1932 9.31364 36.2178 9.69966 35.8198 9.60034C35.5051 9.52183 35.0234 9.02943 34.9758 8.73755C34.8987 8.26408 34.9507 7.41736 35.0933 6.82457C35.1761 6.48071 35.256 6.13907 35.2707 6.06538C35.2855 5.9917 35.3227 5.87112 35.3535 5.79744C35.7359 4.87971 35.8763 3.73798 35.6886 3.07151C35.6039 2.77051 35.4496 2.5532 35.0858 2.22256L34.5968 1.77821L33.9527 1.77857C33.3839 1.77892 33.2512 1.8134 32.8156 2.07393C32.2803 2.39404 32.0078 2.73461 31.5156 3.69851C31.34 4.04237 31.095 4.50458 30.971 4.72564C30.6892 5.2284 29.7908 6.24402 29.6279 6.24402C29.5609 6.24402 29.4919 6.2868 29.4743 6.33914C29.4568 6.39139 29.2742 6.45659 29.0686 6.48401C28.5453 6.55385 28.1431 6.29109 27.8452 5.68499C27.4065 4.79236 27.3487 4.5872 27.2857 3.69851C27.2509 3.20727 27.1924 2.76515 27.1559 2.71603C27.1193 2.6669 27.0691 2.36546 27.0444 2.04616C26.9478 0.797337 26.1202 -0.0173158 24.9662 0.00027947C24.5653 0.00644229 24.3224 0.0640513 24.0703 0.212673ZM27.1946 9.80604C27.9862 9.91018 28.6034 10.0322 29.0421 10.1713C29.1656 10.2105 29.4486 10.2946 29.6709 10.3583C29.8932 10.422 30.1155 10.5023 30.1649 10.537C30.2143 10.5716 30.3949 10.6297 30.5662 10.6662C30.7375 10.7027 30.9396 10.7632 31.0153 10.8008C31.1791 10.8819 31.8037 11.1657 32.3656 11.4144C33.2057 11.7863 34.9014 13.0136 36.0065 14.0495C36.9345 14.9196 37.2595 15.2996 37.9424 16.3131C38.7892 17.57 39.1598 18.2757 39.643 19.5521C39.7081 19.7241 39.7877 19.9049 39.8199 19.9541C40.1227 20.4156 40.6169 23.1102 40.6915 24.7067C40.8855 28.8558 39.35 32.8101 36.3434 35.9045C34.4904 37.8118 32.3787 39.1375 30.0302 39.8682C29.462 40.0449 28.8757 40.2277 28.7272 40.2741C28.5786 40.3206 28.3159 40.3365 28.1433 40.3094C27.9707 40.2823 27.408 40.3234 26.893 40.4008C25.7002 40.5799 24.2998 40.5799 23.107 40.4008C22.592 40.3234 22.0293 40.2823 21.8567 40.3094C21.6841 40.3365 21.4214 40.3206 21.2728 40.2741C21.1243 40.2277 20.538 40.0449 19.9698 39.8682C16.2207 38.7017 12.8969 35.8771 10.9597 32.2114C9.80276 30.0222 9.19016 27.2378 9.30846 24.7067C9.3831 23.1102 9.87732 20.4156 10.1801 19.9541C10.2123 19.9049 10.2919 19.7241 10.357 19.5521C10.8402 18.2757 11.2108 17.57 12.0576 16.3131C12.7405 15.2996 13.0655 14.9196 13.9935 14.0495C15.0986 13.0136 16.7943 11.7863 17.6344 11.4144C18.1963 11.1657 18.8209 10.8819 18.9847 10.8008C19.0604 10.7632 19.2625 10.7027 19.4338 10.6662C19.6051 10.6297 19.7857 10.5716 19.8351 10.537C19.8845 10.5023 20.1068 10.422 20.3291 10.3583C20.5514 10.2946 20.8344 10.2086 20.9579 10.1671C21.3353 10.0405 22.547 9.8172 22.9078 9.80773C23.0952 9.80282 23.3495 9.76835 23.473 9.7311C23.7981 9.63303 26.2555 9.68251 27.1946 9.80604Z" fill="#ABACB7"/>
<ellipse cx="25.0002" cy="24.9553" rx="15.8273" ry="15.7589" fill="white"/>
<ellipse cx="24.9998" cy="24.9107" rx="14.3885" ry="14.2857" fill="#00BCB6"/>
<path fill-rule="evenodd" clip-rule="evenodd" d="M29.2452 18.6207L27.6002 18.6471L27.342 19.2032C27.2 19.509 26.833 20.3418 26.5265 21.0538C26.2201 21.7659 25.8971 22.5092 25.8087 22.7056C25.7204 22.9021 25.5388 23.3239 25.4053 23.6431C24.7262 25.2662 24.4846 25.615 24.3387 25.1833C24.2794 25.0081 24.2167 24.9067 23.6736 24.1076C23.4634 23.7983 23.2914 23.5237 23.2914 23.4972C23.2914 23.4707 23.1757 23.2818 23.0343 23.0773C22.893 22.8729 22.6436 22.491 22.4801 22.2287C21.9942 21.449 22.1813 21.5003 19.8227 21.5003C18.484 21.5003 17.7158 21.5327 17.7158 21.5892C17.7158 21.638 17.8575 21.9825 18.0306 22.3546C18.2037 22.7267 18.3453 23.0483 18.3453 23.0692C18.3453 23.1031 18.6773 23.854 19.3008 25.2306C19.4182 25.4898 19.5144 25.7179 19.5144 25.7375C19.5144 25.757 19.656 26.0774 19.8291 26.4495C20.0022 26.8216 20.1439 27.1431 20.1439 27.164C20.1439 27.185 20.2617 27.456 20.4057 27.7663C20.5497 28.0767 20.9152 28.9132 21.2178 29.6253C21.5204 30.3373 21.7972 30.9878 21.8327 31.0708C21.8905 31.2054 22.1468 31.2258 24.2059 31.2602L26.5144 31.2987L26.8513 30.5736C27.0367 30.1747 27.4396 29.3061 27.7466 28.6431C28.3496 27.3406 28.6711 26.652 29.2829 25.3517C29.4993 24.892 29.6763 24.5039 29.6763 24.4895C29.6763 24.475 29.8628 24.0678 30.0906 23.5844C30.734 22.2203 31.1137 21.4103 31.3607 20.8753C31.4854 20.6052 31.7645 20.0067 31.9807 19.5453C32.1971 19.0838 32.3741 18.6721 32.3741 18.6301C32.3741 18.5881 32.0403 18.5629 31.6322 18.574C31.2241 18.5851 30.15 18.6062 29.2452 18.6207Z" fill="white"/>
</svg>
