<svg width="60" height="60" viewBox="0 0 60 60" fill="none" xmlns="http://www.w3.org/2000/svg">
<g clip-path="url(#clip0_131_7656)">
<path fill-rule="evenodd" clip-rule="evenodd" d="M27.1327 0.0717209C20.1308 0.789932 13.7592 3.80616 8.80617 8.74735C-2.93539 20.4607 -2.93539 39.4631 8.80617 51.1764C13.5729 55.9317 19.368 58.774 26.3121 59.7625C27.7048 59.9607 32.3106 59.9574 33.7568 59.7573C40.5549 58.8162 46.5271 55.8789 51.2104 51.173C56.6579 45.6992 59.6881 38.7335 59.9786 31.017C60.2923 22.6866 57.1423 14.6909 51.2009 8.73726C46.5942 4.12083 40.7576 1.2059 34.1671 0.230112C32.7334 0.0177906 28.572 -0.075884 27.1327 0.0717209ZM34.343 4.50749C39.7876 5.49922 44.4186 7.90639 48.2359 11.7291C53.1487 16.6488 55.7979 23.0363 55.7979 29.9619C55.7979 36.8881 53.1451 43.2835 48.2359 48.1927C43.3267 53.1019 36.9313 55.7546 30.0051 55.7546C23.0839 55.7546 16.6801 53.0985 11.7743 48.1927C7.89803 44.3164 5.49063 39.6299 4.48706 34.0067C4.18857 32.3339 4.18857 27.5899 4.48706 25.9171C5.49063 20.2938 7.89803 15.6074 11.7743 11.7311C15.9593 7.54611 21.0202 5.09474 27.1327 4.29177C28.578 4.10196 32.8118 4.22857 34.343 4.50749ZM28.4445 14.9669C26.4317 15.1366 24.5978 15.9189 23.3531 17.1389C21.5892 18.868 21.3667 21.0879 22.8642 22.0174C24.0476 22.7519 24.9918 22.5426 25.8391 21.3581C26.8563 19.9361 27.5759 19.5195 29.1635 19.433C31.6408 19.2983 33.1735 20.4236 33.0254 22.2686C32.9219 23.558 32.4313 24.2331 30.4159 25.8581C28.3477 27.5259 27.6423 28.4922 27.1837 30.285C26.8699 31.512 26.8704 33.5704 27.1847 34.2627C27.4978 34.9523 27.9505 35.1621 29.1322 35.165C30.8394 35.1692 31.4115 34.6272 31.4118 33.0054C31.4122 31.0188 31.9458 30.0285 33.8771 28.43C36.9451 25.8907 38.339 23.252 37.9738 20.6746C37.4309 16.8426 33.5772 14.5343 28.4445 14.9669ZM28.1879 38.0707C26.0914 38.8473 25.4637 41.4755 26.9929 43.0737C28.1843 44.319 30.0166 44.3102 31.2386 43.0533C33.0888 41.1504 31.889 38.0961 29.2431 37.9731C28.8562 37.9551 28.3813 37.999 28.1879 38.0707Z" fill="#00BCB6"/>
</g>
<defs>
<clipPath id="clip0_131_7656">
<rect width="60" height="60" fill="white"/>
</clipPath>
</defs>
</svg>
