<?xml version="1.0" encoding="utf-8"?><svg xmlns="http://www.w3.org/2000/svg" xmlns:xlink="http://www.w3.org/1999/xlink"><symbol viewBox="0 0 22 7" id="PDF" xmlns="http://www.w3.org/2000/svg"><path d="M.91 7V0h3.45c.827 0 1.427.173 1.8.52.38.347.57.903.57 1.67 0 .767-.187 1.323-.56 1.67-.373.347-.977.52-1.81.52H1.78V7H.91zM4.31.82H1.78v2.74h2.53c.54 0 .933-.107 1.18-.32.247-.22.37-.57.37-1.05 0-.48-.123-.827-.37-1.04C5.243.93 4.85.82 4.31.82zM10.968 7h-2.9V0h2.9c1.254 0 2.164.277 2.73.83.567.553.85 1.443.85 2.67 0 1.227-.283 2.117-.85 2.67-.566.553-1.476.83-2.73.83zm-.02-6.18h-2.01v5.36h2.01c.954 0 1.647-.213 2.08-.64.433-.427.65-1.107.65-2.04s-.217-1.613-.65-2.04c-.433-.427-1.127-.64-2.08-.64zM16.936 7h-.87V0h5.62v.82h-4.75v2.27h4.25v.82h-4.25V7z"/></symbol><symbol viewBox="0 0 20 20" id="arrow-up" xmlns="http://www.w3.org/2000/svg"><path d="M10.707 2.293a1 1 0 00-1.414 0L2.929 8.657a1 1 0 001.414 1.414L10 4.414l5.657 5.657a1 1 0 001.414-1.414l-6.364-6.364zM11 18V3H9v15h2z"/></symbol><symbol viewBox="0 0 22 24" id="basket" xmlns="http://www.w3.org/2000/svg"><g clip-path="url(#ca)"><path d="M10.363 18.443a2.046 2.046 0 00-2.045 2.042 2.046 2.046 0 004.09 0 2.046 2.046 0 00-2.045-2.042zm6.134 0a2.046 2.046 0 00-2.045 2.042 2.046 2.046 0 004.089 0 2.046 2.046 0 00-2.044-2.042zm3.978-8.199L7.413 6.891a.614.614 0 00-.75.73L8.67 16.4h-.786L5.482 5.895a.613.613 0 00-.474-.464l-4.27-.882A.614.614 0 00.489 5.75l3.885.802L6.797 17.15a.613.613 0 00.598.477h12.07a.615.615 0 00.607-.53l.858-6.175a.613.613 0 00-.455-.678zm-8.14 3.91a.613.613 0 01-1.227 0v-2.696a.613.613 0 011.227 0v2.696zm2.625 0a.613.613 0 01-1.227 0v-1.88a.613.613 0 011.227 0v1.88zm2.625 0a.613.613 0 01-1.227 0v-1.226a.613.613 0 011.227 0v1.226z"/></g><path fill-rule="evenodd" clip-rule="evenodd" d="M16.268 4.568a2.996 2.996 0 00-1.693-.523c-.627 0-1.21.193-1.693.523-.28-.843-.492-1.752-.492-2.383C12.39.98 13.37 0 14.575 0s2.185.98 2.185 2.185c0 .631-.212 1.54-.492 2.383zm-4.722 2.274l.024.006v-.011l-.024.005zm4.972 1.217c-1.333-.33-2.766-.681-4.129-1.013a2.185 2.185 0 114.129 1.013zm4.436 1.103c-.866-.217-2.155-.538-3.618-.9a2.995 2.995 0 00.243-1.425c.87.18 1.762.45 2.308.765.596.344.969.928 1.067 1.56zM9.869 6.439c-.36-.086-.706-.167-1.03-.243a2.19 2.19 0 01-.376-2.667 2.188 2.188 0 013.147-.7c.098.738.338 1.599.61 2.353a3.01 3.01 0 00-.449.774c-.628.113-1.305.278-1.902.483zm10.124.075a3.43 3.43 0 01-.217.114c-.696-.295-1.587-.526-2.397-.672a3.01 3.01 0 00-.449-.774c.262-.727.494-1.553.599-2.273.095-.067.189-.128.278-.18a2.188 2.188 0 012.986.8 2.188 2.188 0 01-.8 2.985z"/><defs><clipPath id="ca"><path transform="translate(0 3.064)" d="M0 0h20.936v20.936H0z"/></clipPath></defs></symbol><symbol viewBox="0 0 344.96 344.96" id="check" xmlns="http://www.w3.org/2000/svg"><g data-name="Слой 2"><path class="dcls-1" d="M321.85 86.24l-40-23.11-23.1-40H212.5L172.48 0l-40 23.11H86.24l-23.11 40-40 23.1v46.21L0 172.48l23.11 40v46.21l40 23.11 23.11 40h46.21l40 23.1 40-23.11h46.21l23.11-40 40-23.11V212.5l23.11-40-23.11-40V86.24zM156.91 243.07a16.79 16.79 0 01-23.34 0l-50.45-50.44a16.19 16.19 0 010-22.89l13.35-13.35a16.19 16.19 0 0122.89 0l25.87 25.87 80.34-80.35a16.19 16.19 0 0122.89 0l13.35 13.35a16.19 16.19 0 010 22.89z" data-name="Capa 1"/></g></symbol><symbol viewBox="0 0 20 20" id="download" xmlns="http://www.w3.org/2000/svg"><path d="M16.546 10.585l-6.291 6.302a4.327 4.327 0 01-6.108-6.109l8.144-8.144a2.616 2.616 0 013.604 0 2.565 2.565 0 010 3.604L8.87 13.252a.778.778 0 11-1.14-1.059l5.223-5.212a1.022 1.022 0 00-1.446-1.445l-5.222 5.232a2.788 2.788 0 000 3.96 2.87 2.87 0 003.96 0l7.014-7.024a4.581 4.581 0 00-6.475-6.474L2.64 9.373a6.362 6.362 0 009.05 8.928l6.302-6.292a1.023 1.023 0 00-1.446-1.445v.02z"/></symbol><symbol viewBox="0 0 24 24" id="fb" xmlns="http://www.w3.org/2000/svg"><path d="M13.397 20.997v-8.196h2.765l.411-3.209h-3.176V7.548c0-.926.258-1.56 1.587-1.56h1.684v-2.86A22.108 22.108 0 0014.201 3c-2.444 0-4.122 1.492-4.122 4.231v2.355H7.332v3.21h2.753v8.201h3.312z"/></symbol><symbol viewBox="0 0 24 24" id="instagram" xmlns="http://www.w3.org/2000/svg"><path d="M11.999 7.377a4.624 4.624 0 100 9.248 4.624 4.624 0 000-9.248zm0 7.627a3.004 3.004 0 110-6.008 3.004 3.004 0 010 6.008zm4.807-6.719a1.078 1.078 0 100-2.156 1.078 1.078 0 000 2.156z"/><path d="M20.533 6.11A4.605 4.605 0 0017.9 3.48a6.607 6.607 0 00-2.186-.42c-.963-.042-1.268-.054-3.71-.054s-2.755 0-3.71.054a6.554 6.554 0 00-2.184.42 4.6 4.6 0 00-2.633 2.63 6.585 6.585 0 00-.419 2.186c-.043.962-.056 1.267-.056 3.71 0 2.442 0 2.753.056 3.71.015.748.156 1.486.419 2.187a4.61 4.61 0 002.634 2.632 6.583 6.583 0 002.185.45c.963.042 1.268.055 3.71.055s2.755 0 3.71-.055a6.616 6.616 0 002.186-.42 4.613 4.613 0 002.633-2.632c.263-.7.404-1.438.419-2.186.043-.962.056-1.267.056-3.71s0-2.753-.056-3.71a6.583 6.583 0 00-.421-2.217zm-1.218 9.533a5.046 5.046 0 01-.311 1.688 2.987 2.987 0 01-1.712 1.71c-.535.2-1.1.305-1.67.312-.95.044-1.218.055-3.654.055-2.438 0-2.687 0-3.655-.055a4.961 4.961 0 01-1.67-.311 2.984 2.984 0 01-1.718-1.711 5.08 5.08 0 01-.311-1.67c-.043-.95-.053-1.217-.053-3.653 0-2.437 0-2.686.053-3.655a5.038 5.038 0 01.311-1.687c.305-.79.93-1.41 1.719-1.712a5.01 5.01 0 011.669-.311c.95-.043 1.218-.055 3.655-.055s2.687 0 3.654.055a4.96 4.96 0 011.67.31 2.99 2.99 0 011.712 1.713 5.06 5.06 0 01.311 1.669c.043.95.054 1.218.054 3.655 0 2.436 0 2.698-.043 3.654h-.011v-.001z"/></symbol><symbol viewBox="0 0 18 16" id="telegram" xmlns="http://www.w3.org/2000/svg"><path fill-rule="evenodd" clip-rule="evenodd" d="M.253 8.066l4.491 1.435 8.879-5.716c1.34-.86 1.815-.795.43.469l-6.94 6.375 2.523 1.934 4.14 3.173c.633.413 1.296.136 1.499-.594.846-4.15 1.672-8.3 2.532-12.444.599-2.871-.183-2.418-2.537-1.496L8.795 3.74.515 6.988c-.589.192-.668.967-.262 1.078z"/><path fill-rule="evenodd" clip-rule="evenodd" d="M4.744 9.502l1.543 5.066c.079.298.227.428.356.403.109-.02.198-.156.198-.398.099-1.309.168-2.633.267-3.943l6.945-6.37c1.38-1.265.905-1.335-.43-.469l-8.88 5.711z"/><path fill-rule="evenodd" clip-rule="evenodd" d="M7.112 10.63c-.099 1.31-.168 2.634-.267 3.943 0 .242-.09.378-.198.398.45 0 .598-.06.905-.363l2.083-2.05-2.523-1.928z"/></symbol><symbol viewBox="0 0 18 18" id="viber" xmlns="http://www.w3.org/2000/svg"><path d="M15.169 7.555c.022-2.537-2.14-4.862-4.817-5.186-.056-.006-.112-.017-.174-.028a2.463 2.463 0 00-.408-.045c-.547 0-.693.386-.732.615-.039.224 0 .414.106.559.185.246.503.29.76.324.073.011.146.022.207.034 2.403.536 3.214 1.38 3.61 3.766.011.056.017.129.017.207.017.285.056.877.693.877.05 0 .112-.005.168-.01.592-.09.575-.632.564-.895 0-.073-.005-.145 0-.19.006-.006.006-.017.006-.028z"/><path d="M9.62 1.442c.073.005.14.011.196.017 3.945.609 5.761 2.48 6.27 6.46.011.067.011.15.011.24.006.313.017.956.71.972h.022c.218 0 .391-.067.514-.195.218-.224.201-.565.19-.833-.005-.067-.005-.128-.005-.184.05-4.074-3.476-7.763-7.545-7.902h-.1c-.04 0-.09-.006-.145-.006A2.326 2.326 0 009.525 0c-.648 0-.771.458-.788.738-.028.637.587.681.883.704zm6.27 11.623a4.341 4.341 0 01-.252-.195c-.43-.347-.888-.665-1.335-.978l-.274-.19c-.57-.397-1.079-.593-1.565-.593-.648 0-1.218.358-1.688 1.068-.206.313-.458.47-.77.47a1.49 1.49 0 01-.621-.157c-1.833-.833-3.146-2.107-3.895-3.795-.364-.816-.246-1.347.39-1.777.364-.246 1.035-.704.99-1.581-.056-.995-2.246-3.985-3.174-4.326a1.804 1.804 0 00-1.224-.005C1.41 1.363.645 1.989.265 2.822c-.37.799-.352 1.743.05 2.721 1.151 2.834 2.777 5.298 4.817 7.338 2 1.995 4.46 3.627 7.31 4.856.257.112.525.174.72.213.068.016.123.027.168.039.023.005.045.01.073.01h.022c1.341 0 2.95-1.223 3.443-2.62.452-1.224-.341-1.827-.978-2.314zm-5.678-8.388c-.23.006-.71.017-.877.503-.079.23-.068.425.027.587.14.24.414.313.665.352.9.145 1.364.643 1.454 1.565.044.43.335.732.704.732.028 0 .056 0 .083-.006.447-.056.665-.38.643-.978.006-.62-.318-1.324-.872-1.889-.553-.564-1.218-.882-1.827-.866z"/></symbol><symbol viewBox="0 0 24 24" id="vk" xmlns="http://www.w3.org/2000/svg"><path d="M21.579 6.855c.14-.465 0-.806-.662-.806h-2.193c-.558 0-.813.295-.953.619 0 0-1.115 2.719-2.695 4.482-.51.513-.743.675-1.021.675-.139 0-.341-.162-.341-.627V6.855c0-.558-.161-.806-.626-.806H9.642c-.348 0-.558.258-.558.504 0 .528.79.65.871 2.138v3.228c0 .707-.127.836-.407.836-.743 0-2.551-2.73-3.624-5.853-.209-.607-.42-.852-.98-.852H2.752c-.627 0-.752.295-.752.619 0 .582.743 3.462 3.461 7.27 1.812 2.602 4.363 4.012 6.687 4.012 1.393 0 1.565-.313 1.565-.853v-1.966c0-.626.133-.752.574-.752.324 0 .882.164 2.183 1.417 1.486 1.486 1.732 2.153 2.567 2.153h2.192c.626 0 .939-.313.759-.931-.197-.615-.907-1.51-1.849-2.57-.512-.603-1.277-1.253-1.51-1.578-.325-.42-.231-.604 0-.976.001 0 2.672-3.761 2.95-5.04z"/></symbol><symbol viewBox="0 0 18 18" id="whatsapp" xmlns="http://www.w3.org/2000/svg"><path d="M5.026 12.97s3.926 4.225 8.039 4.954c3.15.56 4.531-2.127 4.888-3.463.124-.466 0-.948-.341-1.274-.326-.326-3.228-1.63-3.927-1.677-.48-.031-.869.17-1.21.621l-.699.885c-.279.358-.651.45-.993.264-.698-.388-1.909-1.195-3.383-2.671-1.474-1.476-2.297-2.687-2.685-3.386-.202-.342-.093-.715.264-.994l.885-.7c.45-.356.651-.73.62-1.21-.046-.715-1.35-3.604-1.676-3.93A1.281 1.281 0 003.536.047C2.216.404-.484 1.787.076 4.94c.728 4.1 4.95 8.03 4.95 8.03z"/></symbol></svg>