<?xml version="1.0" encoding="utf-8"?><svg xmlns="http://www.w3.org/2000/svg" xmlns:xlink="http://www.w3.org/1999/xlink"><symbol viewBox="0 0 22 7" id="PDF" xmlns="http://www.w3.org/2000/svg"><path d="M.91 7V0h3.45c.827 0 1.427.173 1.8.52.38.347.57.903.57 1.67 0 .767-.187 1.323-.56 1.67-.373.347-.977.52-1.81.52H1.78V7H.91zM4.31.82H1.78v2.74h2.53c.54 0 .933-.107 1.18-.32.247-.22.37-.57.37-1.05 0-.48-.123-.827-.37-1.04C5.243.93 4.85.82 4.31.82zM10.968 7h-2.9V0h2.9c1.254 0 2.164.277 2.73.83.567.553.85 1.443.85 2.67 0 1.227-.283 2.117-.85 2.67-.566.553-1.476.83-2.73.83zm-.02-6.18h-2.01v5.36h2.01c.954 0 1.647-.213 2.08-.64.433-.427.65-1.107.65-2.04s-.217-1.613-.65-2.04c-.433-.427-1.127-.64-2.08-.64zM16.936 7h-.87V0h5.62v.82h-4.75v2.27h4.25v.82h-4.25V7z"/></symbol><symbol viewBox="0 0 60 60" id="arrow-bottom" xmlns="http://www.w3.org/2000/svg"><g clip-path="url(#aba)"><path fill-rule="evenodd" clip-rule="evenodd" d="M29.18.103c-.527.161-1.272.936-1.423 1.478-.085.305-.124 5.58-.125 16.565v16.118l.263.516c.145.284.466.677.714.874.416.33.521.359 1.366.359.845 0 .95-.028 1.366-.359.248-.197.57-.592.716-.877l.265-.52-.03-16.349L32.26 1.56l-.278-.447C31.43.223 30.215-.214 29.18.102zM16.909 33.326c-1.166.606-1.65 1.913-1.124 3.038.147.314 1.858 2.098 5.183 5.405 4.66 4.634 5.018 4.962 5.843 5.363 2.218 1.077 4.698.987 6.783-.247.996-.59 10.372-9.814 10.694-10.52.438-.964.134-2.096-.753-2.801-.562-.448-1.677-.567-2.343-.251-.228.108-2.483 2.233-5.025 4.734-2.535 2.496-4.777 4.655-4.98 4.798-.477.333-1.248.437-1.916.258-.473-.127-1.016-.629-5.33-4.926-2.643-2.632-4.954-4.842-5.136-4.91-.482-.183-1.491-.152-1.896.059zM1.523 55.422c-.554.16-1.274.928-1.436 1.53-.281 1.042.136 2.137 1.023 2.689l.447.278h56.836l.447-.278a3 3 0 00.762-.753c.262-.396.315-.606.315-1.254 0-.65-.053-.858-.315-1.254a3 3 0 00-.761-.753l-.448-.279-28.242-.019c-17.603-.012-28.387.023-28.628.093z"/></g><defs><clipPath id="aba"><path d="M0 0h60v60H0z"/></clipPath></defs></symbol><symbol viewBox="0 0 20 20" id="arrow-left" xmlns="http://www.w3.org/2000/svg"><g clip-path="url(#aca)"><path d="M.293 10.707a1 1 0 010-1.414l6.364-6.364A1 1 0 018.07 4.343L2.414 10l5.657 5.657a1 1 0 11-1.414 1.414L.293 10.707zM21 11H1V9h20v2z"/></g><defs><clipPath id="aca"><path transform="matrix(-1 0 0 1 20 0)" d="M0 0h20v20H0z"/></clipPath></defs></symbol><symbol viewBox="0 0 20 20" id="arrow-right" xmlns="http://www.w3.org/2000/svg"><g clip-path="url(#ada)"><path d="M19.707 10.707a1 1 0 000-1.414l-6.364-6.364a1 1 0 10-1.414 1.414L17.586 10l-5.657 5.657a1 1 0 001.414 1.414l6.364-6.364zM-1 11h20V9H-1v2z"/></g><defs><clipPath id="ada"><path d="M0 0h20v20H0z"/></clipPath></defs></symbol><symbol viewBox="0 0 20 20" id="arrow-up" xmlns="http://www.w3.org/2000/svg"><path d="M10.707 2.293a1 1 0 00-1.414 0L2.929 8.657a1 1 0 001.414 1.414L10 4.414l5.657 5.657a1 1 0 001.414-1.414l-6.364-6.364zM11 18V3H9v15h2z"/></symbol><symbol viewBox="0 0 22 24" id="basket" xmlns="http://www.w3.org/2000/svg"><g clip-path="url(#afa)"><path d="M10.363 18.443a2.046 2.046 0 00-2.045 2.042 2.046 2.046 0 004.09 0 2.046 2.046 0 00-2.045-2.042zm6.134 0a2.046 2.046 0 00-2.045 2.042 2.046 2.046 0 004.089 0 2.046 2.046 0 00-2.044-2.042zm3.978-8.199L7.413 6.891a.614.614 0 00-.75.73L8.67 16.4h-.786L5.482 5.895a.613.613 0 00-.474-.464l-4.27-.882A.614.614 0 00.489 5.75l3.885.802L6.797 17.15a.613.613 0 00.598.477h12.07a.615.615 0 00.607-.53l.858-6.175a.613.613 0 00-.455-.678zm-8.14 3.91a.613.613 0 01-1.227 0v-2.696a.613.613 0 011.227 0v2.696zm2.625 0a.613.613 0 01-1.227 0v-1.88a.613.613 0 011.227 0v1.88zm2.625 0a.613.613 0 01-1.227 0v-1.226a.613.613 0 011.227 0v1.226z"/></g><path fill-rule="evenodd" clip-rule="evenodd" d="M16.268 4.568a2.996 2.996 0 00-1.693-.523c-.627 0-1.21.193-1.693.523-.28-.843-.492-1.752-.492-2.383C12.39.98 13.37 0 14.575 0s2.185.98 2.185 2.185c0 .631-.212 1.54-.492 2.383zm-4.722 2.274l.024.006v-.011l-.024.005zm4.972 1.217c-1.333-.33-2.766-.681-4.129-1.013a2.185 2.185 0 114.129 1.013zm4.436 1.103c-.866-.217-2.155-.538-3.618-.9a2.995 2.995 0 00.243-1.425c.87.18 1.762.45 2.308.765.596.344.969.928 1.067 1.56zM9.869 6.439c-.36-.086-.706-.167-1.03-.243a2.19 2.19 0 01-.376-2.667 2.188 2.188 0 013.147-.7c.098.738.338 1.599.61 2.353a3.01 3.01 0 00-.449.774c-.628.113-1.305.278-1.902.483zm10.124.075a3.43 3.43 0 01-.217.114c-.696-.295-1.587-.526-2.397-.672a3.01 3.01 0 00-.449-.774c.262-.727.494-1.553.599-2.273.095-.067.189-.128.278-.18a2.188 2.188 0 012.986.8 2.188 2.188 0 01-.8 2.985z"/><defs><clipPath id="afa"><path transform="translate(0 3.064)" d="M0 0h20.936v20.936H0z"/></clipPath></defs></symbol><symbol viewBox="0 0 30 30" id="calc" xmlns="http://www.w3.org/2000/svg"><g clip-path="url(#aga)"><path fill-rule="evenodd" clip-rule="evenodd" d="M4.06.074C1.955.503.388 2.134.06 4.238c-.054.348-.068 3.203-.054 11.05.022 11.55-.007 10.64.362 11.627C.782 28.024 2 29.24 3.11 29.657c.98.368.114.343 11.903.343 11.788 0 10.922.025 11.903-.343 1.11-.416 2.326-1.632 2.742-2.743.367-.982.343-.115.343-11.908 0-9.89-.01-10.83-.105-11.175-.184-.663-.365-1.08-.67-1.547-.713-1.086-1.633-1.749-3.01-2.167C25.898.022 24.97.012 15.168.002 6.511-.006 4.39.007 4.061.074zm9.95 7.92v6.01H1.996V9.322c0-5.084-.003-5.023.351-5.723.224-.442.768-.996 1.208-1.23.72-.384.593-.376 5.748-.38l4.709-.005v6.01zm11.722-5.916a3.056 3.056 0 012.2 2.194c.083.315.096 1.048.096 5.05v4.682H16.013V1.984h4.68c3.947 0 4.737.015 5.04.094zM7.596 4.073a1.07 1.07 0 00-.527.56c-.038.1-.067.646-.067 1.264v1.088l-1.185.02c-1.296.02-1.35.035-1.659.45-.18.242-.18.836 0 1.079.31.414.363.429 1.655.45l1.181.02.02 1.18c.02 1.293.036 1.347.45 1.657.242.18.836.18 1.078 0 .415-.31.43-.364.45-1.656l.02-1.181 1.18-.02c1.293-.021 1.346-.036 1.656-.45.18-.243.18-.837 0-1.079-.31-.415-.363-.43-1.655-.45l-1.181-.02-.02-1.181c-.02-1.288-.037-1.347-.44-1.65-.208-.154-.706-.197-.956-.081zM18.607 7.08c-.414.182-.652.662-.564 1.135.055.292.367.638.651.721.153.045 1.303.06 3.463.048 3.154-.019 3.238-.023 3.407-.148.328-.246.43-.446.43-.842 0-.396-.102-.596-.43-.84-.169-.127-.249-.13-3.47-.144-2.645-.011-3.334.002-3.487.07zm-4.596 14.938v6.01H9.33c-5.145 0-5.045.006-5.78-.385-.438-.234-.981-.788-1.205-1.23-.354-.7-.35-.64-.35-5.723v-4.682H14.01v6.01zm14.017-1.386c0 2.883-.024 4.75-.063 4.96-.155.817-.774 1.667-1.493 2.05-.735.392-.634.386-5.779.386h-4.68v-12.02h12.015v4.624zm-22.58-1.64a1.028 1.028 0 00-.544 1.13c.036.195.19.384.864 1.066l.821.83-.82.83c-.88.887-.96 1.028-.867 1.52.055.297.455.697.75.752.493.092.634.012 1.522-.867l.83-.82.828.82c.888.88 1.029.96 1.521.867.296-.056.696-.456.751-.751.093-.493.012-.634-.866-1.522l-.82-.83.82-.829c.878-.888.959-1.029.866-1.521-.055-.296-.455-.696-.75-.752-.493-.092-.634-.012-1.523.868l-.83.822-.797-.793c-.438-.436-.876-.823-.973-.859a1.003 1.003 0 00-.782.04zm13.16.108c-.415.182-.654.662-.565 1.135.055.292.367.638.651.72.153.046 1.303.061 3.463.049 3.154-.019 3.238-.023 3.407-.148.328-.246.43-.446.43-.842 0-.396-.102-.596-.43-.841-.169-.126-.249-.13-3.47-.143-2.645-.011-3.334.002-3.487.07zm0 4.006c-.415.183-.654.662-.565 1.135.055.293.367.639.651.722.153.044 1.303.06 3.463.047 3.154-.018 3.238-.022 3.407-.148.328-.245.43-.445.43-.841 0-.396-.102-.596-.43-.841-.169-.127-.249-.13-3.47-.143-2.645-.012-3.334.002-3.487.07z"/></g><defs><clipPath id="aga"><path d="M0 0h30v30H0z"/></clipPath></defs></symbol><symbol viewBox="0 0 24 24" id="calendar" xmlns="http://www.w3.org/2000/svg"><path fill-rule="evenodd" clip-rule="evenodd" d="M3.942.937v.937l-.69.001c-.425 0-.818.028-1.02.07A2.849 2.849 0 00.078 4.1c-.104.494-.104 17.174 0 17.667a2.849 2.849 0 002.154 2.155c.494.104 19.042.104 19.536 0a2.849 2.849 0 002.154-2.155c.104-.493.104-17.173 0-17.667a2.849 2.849 0 00-2.154-2.155c-.202-.042-.595-.07-1.02-.07h-.69V0h-1.874v1.874H5.816V0H3.942v.937zm0 3.75v.936h1.874V3.75h12.368v1.874h1.874V3.74l.718.016c.675.015.728.023.89.133.096.065.231.2.302.3l.128.184.014 1.281.015 1.281H1.88V5.752c0-.655.022-1.26.048-1.354.058-.209.378-.54.578-.598.081-.024.437-.045.791-.047l.644-.004v.937zm18.166 10.465l-.012 6.342-.128.183a1.385 1.385 0 01-.302.3l-.173.118H2.507l-.173-.117a1.403 1.403 0 01-.301-.3l-.129-.184-.012-6.342L1.88 8.81h20.24l-.012 6.342zm-18.54-3.437v.937H5.44v-1.874H3.568v.937zm3.747 0v.937H9.19v-1.874H7.315v.937zm3.748 0v.937h1.874v-1.874h-1.874v.937zm3.748 0v.937h1.874v-1.874H14.81v.937zm3.748 0v.937h1.874v-1.874h-1.874v.937zm-14.991 3.75v.936H5.44v-1.874H3.568v.937zm3.747 0v.936H9.19v-1.874H7.315v.937zm3.748 0v.936h1.874v-1.874h-1.874v.937zm3.748 0v.936h1.874v-1.874H14.81v.937zm3.748 0v.936h1.874v-1.874h-1.874v.937zM3.568 19.212v.937H5.44v-1.874H3.568v.937zm3.747 0v.937H9.19v-1.874H7.315v.937zm3.748 0v.937h1.874v-1.874h-1.874v.937zm3.748 0v.937h1.874v-1.874H14.81v.937z"/></symbol><symbol viewBox="0 0 344.96 344.96" id="check" xmlns="http://www.w3.org/2000/svg"><g data-name="Слой 2"><path class="aicls-1" d="M321.85 86.24l-40-23.11-23.1-40H212.5L172.48 0l-40 23.11H86.24l-23.11 40-40 23.1v46.21L0 172.48l23.11 40v46.21l40 23.11 23.11 40h46.21l40 23.1 40-23.11h46.21l23.11-40 40-23.11V212.5l23.11-40-23.11-40V86.24zM156.91 243.07a16.79 16.79 0 01-23.34 0l-50.45-50.44a16.19 16.19 0 010-22.89l13.35-13.35a16.19 16.19 0 0122.89 0l25.87 25.87 80.34-80.35a16.19 16.19 0 0122.89 0l13.35 13.35a16.19 16.19 0 010 22.89z" data-name="Capa 1"/></g></symbol><symbol viewBox="0 0 20 20" id="chevron-down" xmlns="http://www.w3.org/2000/svg"><path d="M14.138 6.931L10 11.069 5.862 6.931"/></symbol><symbol viewBox="0 0 24 24" id="copy-cont" xmlns="http://www.w3.org/2000/svg"><path d="M17 3h-6C8.8 3 7 4.8 7 7c-2.2 0-4 1.8-4 4v6c0 2.2 1.8 4 4 4h6c2.2 0 4-1.8 4-4 2.2 0 4-1.8 4-4V7c0-2.2-1.8-4-4-4zm-2 14c0 1.1-.9 2-2 2H7c-1.1 0-2-.9-2-2v-6c0-1.1.9-2 2-2h6c1.1 0 2 .9 2 2v6zm4-4c0 1.1-.9 2-2 2v-4c0-2.2-1.8-4-4-4H9c0-1.1.9-2 2-2h6c1.1 0 2 .9 2 2v6z"/></symbol><symbol viewBox="0 0 20 20" id="download" xmlns="http://www.w3.org/2000/svg"><path d="M16.546 10.585l-6.291 6.302a4.327 4.327 0 01-6.108-6.109l8.144-8.144a2.616 2.616 0 013.604 0 2.565 2.565 0 010 3.604L8.87 13.252a.778.778 0 11-1.14-1.059l5.223-5.212a1.022 1.022 0 00-1.446-1.445l-5.222 5.232a2.788 2.788 0 000 3.96 2.87 2.87 0 003.96 0l7.014-7.024a4.581 4.581 0 00-6.475-6.474L2.64 9.373a6.362 6.362 0 009.05 8.928l6.302-6.292a1.023 1.023 0 00-1.446-1.445v.02z"/></symbol><symbol viewBox="0 0 24 24" id="fb" xmlns="http://www.w3.org/2000/svg"><path d="M13.397 20.997v-8.196h2.765l.411-3.209h-3.176V7.548c0-.926.258-1.56 1.587-1.56h1.684v-2.86A22.108 22.108 0 0014.201 3c-2.444 0-4.122 1.492-4.122 4.231v2.355H7.332v3.21h2.753v8.201h3.312z"/></symbol><symbol viewBox="0 0 24 24" id="instagram" xmlns="http://www.w3.org/2000/svg"><path d="M11.999 7.377a4.624 4.624 0 100 9.248 4.624 4.624 0 000-9.248zm0 7.627a3.004 3.004 0 110-6.008 3.004 3.004 0 010 6.008zm4.807-6.719a1.078 1.078 0 100-2.156 1.078 1.078 0 000 2.156z"/><path d="M20.533 6.11A4.605 4.605 0 0017.9 3.48a6.607 6.607 0 00-2.186-.42c-.963-.042-1.268-.054-3.71-.054s-2.755 0-3.71.054a6.554 6.554 0 00-2.184.42 4.6 4.6 0 00-2.633 2.63 6.585 6.585 0 00-.419 2.186c-.043.962-.056 1.267-.056 3.71 0 2.442 0 2.753.056 3.71.015.748.156 1.486.419 2.187a4.61 4.61 0 002.634 2.632 6.583 6.583 0 002.185.45c.963.042 1.268.055 3.71.055s2.755 0 3.71-.055a6.616 6.616 0 002.186-.42 4.613 4.613 0 002.633-2.632c.263-.7.404-1.438.419-2.186.043-.962.056-1.267.056-3.71s0-2.753-.056-3.71a6.583 6.583 0 00-.421-2.217zm-1.218 9.533a5.046 5.046 0 01-.311 1.688 2.987 2.987 0 01-1.712 1.71c-.535.2-1.1.305-1.67.312-.95.044-1.218.055-3.654.055-2.438 0-2.687 0-3.655-.055a4.961 4.961 0 01-1.67-.311 2.984 2.984 0 01-1.718-1.711 5.08 5.08 0 01-.311-1.67c-.043-.95-.053-1.217-.053-3.653 0-2.437 0-2.686.053-3.655a5.038 5.038 0 01.311-1.687c.305-.79.93-1.41 1.719-1.712a5.01 5.01 0 011.669-.311c.95-.043 1.218-.055 3.655-.055s2.687 0 3.654.055a4.96 4.96 0 011.67.31 2.99 2.99 0 011.712 1.713 5.06 5.06 0 01.311 1.669c.043.95.054 1.218.054 3.655 0 2.436 0 2.698-.043 3.654h-.011v-.001z"/></symbol><symbol viewBox="0 0 12 16" id="location" xmlns="http://www.w3.org/2000/svg"><path fill-rule="evenodd" clip-rule="evenodd" d="M5.26.027C2.822.262.746 2.087.158 4.51c-.132.544-.16.81-.159 1.47.002.679.037.96.202 1.612.398 1.575 1.367 3.412 2.862 5.422.682.917 1.545 1.945 2.17 2.584.299.305.38.372.478.389.238.041.328-.002.643-.31 1.347-1.316 2.902-3.34 3.875-5.041.23-.404.665-1.31.83-1.733.722-1.852.803-3.484.25-5.018A5.945 5.945 0 008.316.568 5.74 5.74 0 005.26.028zm1.148 2.838c.547.113 1.02.368 1.425.77.348.345.575.718.732 1.204.115.356.144.98.064 1.378-.228 1.122-1.05 1.962-2.19 2.236-.296.072-.924.072-1.22 0-1.13-.272-1.958-1.11-2.185-2.214-.101-.49-.051-1.146.12-1.585.159-.404.345-.687.667-1.014a2.837 2.837 0 012.587-.775z"/></symbol><symbol viewBox="0 0 20 20" id="phone-call" xmlns="http://www.w3.org/2000/svg"><g clip-path="url(#apa)"><path fill-rule="evenodd" clip-rule="evenodd" d="M4.104.083C3.113.558.822 3.163.137 4.59c-.162.337-.171.476-.076 1.066.329 2.028 1.532 4.518 3.253 6.73a21.839 21.839 0 002.038 2.299c2.565 2.562 5.432 4.349 8.127 5.064.526.139 1.165.25 1.445.25.9 0 4.442-2.924 4.994-4.122.127-.277.11-.571-.054-.906-.164-.335-.384-.527-1.319-1.15-2.06-1.372-3.512-2.12-4.143-2.132-.477-.009-.709.159-1.528 1.105-.272.314-.512.582-.533.595-.056.035-.589-.166-1.108-.418a9.145 9.145 0 01-4.183-4.16c-.343-.7-.484-1.102-.414-1.186.029-.035.278-.255.553-.49.904-.77 1.121-1.065 1.122-1.52 0-.635-.713-2.033-2.092-4.1-.334-.5-.689-.992-.788-1.092-.39-.389-.936-.53-1.327-.341zM10.67 1.32c0 .664 0 .667.094.667.052 0 .295.02.541.043 2.573.244 4.76 1.735 5.916 4.032.42.839.656 1.69.75 2.716l.05.548h1.322v-.29c0-.433-.11-1.208-.255-1.795-.449-1.823-1.531-3.52-2.977-4.669-1.033-.821-2.302-1.44-3.505-1.707-.499-.11-1.285-.212-1.646-.212h-.29v.667zm-6.064.22c.197.233 1.038 1.527 1.372 2.11.176.307.467.853.648 1.213l.328.656-.237.229a9.55 9.55 0 01-.55.48c-.428.346-.947.89-.982 1.03-.114.455.455 1.955 1.172 3.089.558.882 1.372 1.81 2.187 2.49.987.824 2.344 1.567 3.456 1.892.413.121.653.134.823.044.16-.084.746-.691 1.223-1.268.214-.258.396-.469.404-.469.05 0 1.427.713 1.896.982.638.365 2.06 1.3 2.181 1.434l.081.09-.56.564a18.113 18.113 0 01-2.7 2.258c-.489.336-.4.325-1.212.148C9.464 17.494 3.803 12.287 1.9 7.255c-.217-.573-.464-1.48-.519-1.904l-.037-.284.292-.425c.674-.982 1.219-1.638 2.108-2.54.378-.384.702-.698.718-.698.017 0 .082.06.144.135zm6.064 3.11v.66l.426.052c.951.115 1.737.492 2.392 1.146.654.655 1.031 1.44 1.146 2.392l.052.426h1.321v-.243a5.376 5.376 0 00-3.065-4.593c-.59-.282-1.477-.501-2.027-.501h-.245v.66z"/></g><defs><clipPath id="apa"><path d="M0 0h20v20H0z"/></clipPath></defs></symbol><symbol viewBox="0 0 90 90" id="sStages-1" xmlns="http://www.w3.org/2000/svg"><path fill-rule="evenodd" clip-rule="evenodd" d="M21.374 16.11c-2.657.363-5.593 1.621-7.648 3.277-7.159 5.766-7.683 16.35-1.133 22.86 1.542 1.533 4.15 3.174 5.043 3.174 1.3 0 2.12-1.246 1.588-2.412-.163-.358-.694-.743-2.222-1.61-1.62-.919-3.64-3.224-4.513-5.15-1.03-2.273-1.359-5.325-.815-7.577 1.311-5.436 6.038-9.204 11.554-9.212 2.183-.004 3.479.303 5.472 1.294 2.242 1.115 3.976 2.85 5.287 5.288.506.94 1.032 1.345 1.746 1.345.908 0 1.695-.77 1.695-1.661 0-.509-1.038-2.493-1.897-3.63-1.53-2.023-3.937-3.918-6.144-4.836-2.501-1.042-5.582-1.484-8.013-1.15zm38.15 5.272c-1.881.316-3.846 1.822-4.667 3.577-.248.53-.483.962-.524.962-.04 0-.251-.126-.468-.281-1.605-1.143-4.704-1.187-6.628-.094-1.185.673-2.602 2.335-2.851 3.344-.055.222-.13.403-.168.403-.038 0-.565-.238-1.172-.53-3.176-1.528-7.126-.176-8.622 2.95-.232.483-.444.908-.47.943-.028.035-1.586-1.463-3.463-3.33-3.768-3.745-4.329-4.14-6.258-4.409-2.146-.299-4.035.356-5.606 1.942-1.899 1.918-2.34 4.85-1.114 7.42.417.873 1.448 1.947 12.417 12.938 6.579 6.592 11.92 11.985 11.869 11.985-.234 0-13.332 2.076-14.048 2.227-1.851.389-3.553 1.472-4.623 2.942-1.24 1.704-1.766 3.956-1.328 5.68a5.305 5.305 0 003.386 3.682c.813.282 35.05.304 36.664.023 2.85-.496 5.93-1.793 8.124-3.42 1.332-.987 6.04-5.534 8.004-7.73 1.884-2.107 3.102-4.1 3.942-6.455 2.272-6.363.901-13.52-3.57-18.64-1.501-1.72-11.614-12.816-12.671-13.904-1.24-1.277-2.231-1.876-3.576-2.16-1.091-.232-1.521-.243-2.579-.065zm2.705 3.71c.59.347 12.986 13.886 14.298 15.615 2.79 3.678 3.76 8.759 2.526 13.229-.391 1.419-1.42 3.58-2.285 4.804-.779 1.101-6.642 7.099-8.14 8.326-1.723 1.413-3.882 2.496-6.08 3.052-1.874.473-4.469.535-20.502.49-14.467-.04-15.864-.065-16.178-.287-.617-.437-.808-.853-.785-1.714.04-1.492 1.024-2.926 2.442-3.553.364-.16 4.058-.807 9.505-1.663 4.9-.77 9.098-1.498 9.327-1.616.567-.293.93-1.204.74-1.861-.105-.369-3.343-3.696-13.318-13.685-14.136-14.155-13.563-13.52-13.54-15.004.013-.878.573-1.906 1.329-2.437.788-.553 2.186-.695 2.971-.302.275.138 4.491 4.23 9.37 9.095 9.382 9.355 9.291 9.276 10.336 8.99.824-.224 1.382-1.17 1.178-1.993-.065-.26-1.456-1.766-3.892-4.216-4.032-4.053-4.39-4.525-4.39-5.79 0-2.134 2.264-3.666 4.213-2.852.354.148 1.905 1.58 4.433 4.092 3.371 3.35 3.964 3.879 4.452 3.97.935.176 1.918-.475 2.001-1.325.084-.847-.032-1.018-2.179-3.207-2.44-2.488-2.75-3.006-2.636-4.381.125-1.51 1.287-2.622 2.843-2.722 1.298-.084 1.835.252 4.328 2.705 2.105 2.07 2.153 2.107 2.79 2.107.75 0 1.205-.27 1.536-.912.333-.642.177-1.323-.505-2.218-.675-.885-.787-1.194-.78-2.152.018-2.305 2.6-3.758 4.592-2.585z"/></symbol><symbol viewBox="0 0 90 90" id="sStages-2" xmlns="http://www.w3.org/2000/svg"><path fill-rule="evenodd" clip-rule="evenodd" d="M20.59 13.125c-2.18.428-4.033 2.319-4.456 4.546-.179.944-.179 47.079 0 48.022.433 2.28 2.274 4.123 4.555 4.555.375.071 1.19.13 1.808.13h1.126v1.125c0 .619.058 1.433.13 1.809.432 2.28 2.273 4.122 4.554 4.554.94.179 39.209.179 40.15 0 2.28-.432 4.122-2.274 4.554-4.554.18-.944.18-47.079 0-48.022-.432-2.28-2.274-4.122-4.554-4.555-.376-.071-1.19-.13-1.809-.13h-1.125V19.48c0-.619-.058-1.433-.13-1.809-.432-2.28-2.274-4.122-4.554-4.554-.848-.16-39.43-.153-40.25.008zm40.11 3.927c.758.387 1.013.991 1.013 2.406v1.148l-13.745.001c-14.99.002-14.613-.015-16.019.727-.902.476-7.123 6.697-7.599 7.599-.752 1.427-.724.655-.726 19.955l-.002 17.68h-1.148c-1.414 0-2.019-.254-2.406-1.012-.253-.497-.255-.7-.255-23.874 0-23.164.002-23.377.255-23.873.156-.306.44-.598.73-.75.467-.247.81-.251 19.938-.257 19.262-.006 19.468-.003 19.964.25zM35.05 28.224v3.809h-7.62v-.31c0-.17.06-.47.134-.666.169-.453 5.895-6.228 6.406-6.46.21-.095.538-.175.73-.178l.35-.004v3.809zm33.268-3.554c.323.165.593.434.757.757.254.497.256.7.256 23.874s-.002 23.376-.256 23.873a1.751 1.751 0 01-.757.757c-.495.253-.708.256-19.937.256-19.23 0-19.442-.003-19.938-.256a1.75 1.75 0 01-.756-.757c-.253-.495-.256-.71-.256-18.917V35.843h4.957c4.717 0 4.98-.012 5.458-.256a1.75 1.75 0 00.757-.757c.243-.477.255-.74.255-5.457v-4.957h14.48c14.261 0 14.487.003 14.98.255zM32.226 40.167c-.536.283-.985 1.032-.985 1.642 0 .63.45 1.362 1.012 1.65.495.251.717.255 16.129.255s15.634-.004 16.128-.256c.564-.287 1.013-1.019 1.013-1.649 0-.63-.45-1.361-1.013-1.648-.494-.253-.71-.256-16.155-.25-15.335.005-15.663.01-16.129.256zm0 7.618c-.536.283-.985 1.032-.985 1.643 0 .63.45 1.361 1.012 1.649.495.252.717.255 16.129.255s15.634-.003 16.128-.255c.564-.288 1.013-1.02 1.013-1.65 0-.63-.45-1.36-1.013-1.648-.494-.253-.71-.256-16.155-.25-15.335.005-15.663.01-16.129.256zm0 7.618c-.536.283-.985 1.032-.985 1.643 0 .63.45 1.361 1.012 1.649.495.252.717.255 16.129.255s15.634-.003 16.128-.255c.564-.288 1.013-1.02 1.013-1.65 0-.63-.45-1.36-1.013-1.648-.494-.252-.71-.256-16.155-.25-15.335.005-15.663.01-16.129.256zm0 7.618c-.536.283-.985 1.032-.985 1.643 0 .63.45 1.361 1.012 1.649.495.252.717.255 16.129.255s15.634-.003 16.128-.255c.564-.288 1.013-1.019 1.013-1.65 0-.63-.45-1.36-1.013-1.648-.494-.252-.71-.255-16.155-.25-15.335.005-15.663.01-16.129.256z"/></symbol><symbol viewBox="0 0 90 90" id="sStages-3" xmlns="http://www.w3.org/2000/svg"><path fill-rule="evenodd" clip-rule="evenodd" d="M14.24 20.131c-1.464.358-2.895 1.684-3.288 3.049-.126.438-1.538 6.502-3.139 13.476C4.621 50.57 4.66 50.318 5.443 51.85c.493.964 1.231 1.682 2.145 2.084 1.077.474 5.585 1.467 6.663 1.467 1.136 0 2.105-.386 3.004-1.197.345-.312.715-.778.821-1.035.107-.258.255-.468.329-.468.074 0 3.98 3.81 8.679 8.466 7.832 7.76 8.631 8.507 9.59 8.959 2.118.997 4.632.529 6.209-1.157.388-.415.825-1.005.97-1.31.146-.307.307-.557.358-.557.05 0 .613.524 1.249 1.164 1.51 1.52 2.562 2.022 4.236 2.02 1.61-.002 2.787-.47 3.836-1.525.436-.439.92-1.066 1.073-1.394.154-.328.329-.574.388-.548.06.027.53.26 1.045.518.844.423 1.085.47 2.424.47 1.394 0 1.549-.034 2.468-.532 1.724-.935 2.72-2.413 2.965-4.395l.124-1.013.65-.111c1.484-.254 3.055-1.474 3.77-2.928.378-.771.433-1.066.433-2.325V55.06l1.62-.715 1.62-.714.63.57c.902.813 1.87 1.2 3.007 1.2 1.078-.001 5.586-.994 6.663-1.468.914-.402 1.652-1.12 2.145-2.084.783-1.532.822-1.28-2.37-15.194-1.6-6.974-3.013-13.038-3.14-13.476-.287-.998-1.269-2.14-2.28-2.653-1.298-.658-2.065-.646-5.234.08-1.55.355-3.115.788-3.48.963-.363.174-.98.672-1.37 1.106-.876.974-1.23 2.06-1.153 3.544l.055 1.043-1.253.505c-.992.401-1.479.506-2.348.508-1.345.002-1.613-.116-5.893-2.591-5.677-3.285-7.348-3.925-9.839-3.773-2.121.13-4.041.97-5.758 2.522l-.623.563-7.711-.041-7.712-.04-.212-.727c-.262-.9-1.385-2.185-2.29-2.62-.774-.371-6.02-1.592-6.742-1.569a5.7 5.7 0 00-.964.131zm3.83 3.599c2.194.514 2.63.666 2.934 1.02.198.23.359.568.359.752 0 .424-5.744 25.588-5.951 26.072-.085.198-.39.459-.677.579-.479.2-.739.169-3.108-.367-1.422-.321-2.765-.703-2.986-.847a1.351 1.351 0 01-.502-.728c-.119-.539 5.596-25.836 5.973-26.44.226-.361.709-.632 1.146-.64.129-.003 1.394.266 2.811.599zm57.661-.165c.41.41 6.268 25.82 6.131 26.593-.055.31-.25.614-.497.777-.224.146-1.57.53-2.992.851-2.37.536-2.629.567-3.108.367-.287-.12-.592-.38-.677-.579-.207-.484-5.95-25.648-5.95-26.072 0-.184.16-.522.359-.752.303-.353.747-.511 2.856-1.019 2.642-.635 3.378-.666 3.879-.166zm-27.436 1.68c1.153.342 3.206 1.397 7.115 3.652 3.732 2.154 4.712 2.53 6.607 2.53 1.41 0 2.156-.158 3.459-.734.474-.21.895-.348.936-.306.041.04 1.086 4.497 2.32 9.903a8993.89 8993.89 0 002.31 10.09c.05.202-.364.454-1.836 1.118l-1.9.857-7.435-7.398c-4.09-4.069-7.752-7.604-8.14-7.857-1.464-.956-2.684-1.303-4.575-1.304-1.895-.002-3 .394-5.341 1.913-5.015 3.252-7.5 3.65-10.197 1.633-.3-.223-.25-.297 1.256-1.85.863-.89 3.053-3.345 4.868-5.455 4.33-5.036 5.52-6.135 7.307-6.753 1.016-.35 2.15-.364 3.246-.039zm-11.61 3.153c-1.433 1.836-5.19 6.05-6.897 7.734-2.325 2.295-2.552 2.674-2.112 3.525.454.878 2.358 2.494 3.734 3.169 2.176 1.068 4.282 1.141 6.976.242 1.422-.475 2.633-1.114 4.893-2.586 2.158-1.405 2.647-1.6 4.014-1.605 1.993-.007 1.855-.119 10.61 8.643l7.817 7.822.058.91c.046.72-.009 1.018-.267 1.43-.448.712-1.53 1.183-2.402 1.042-.608-.097-1.083-.531-6.604-6.03-3.271-3.26-6.128-5.993-6.347-6.075-.986-.367-2.027.372-2.027 1.438 0 .628.077.714 6.161 6.827 6.492 6.523 6.671 6.742 6.455 7.885-.144.764-.624 1.435-1.233 1.724-.634.3-1.544.34-2.04.088-.188-.096-3.197-3.02-6.686-6.497-4.748-4.731-6.442-6.327-6.732-6.34-.749-.035-1.017.048-1.443.452-.33.312-.43.553-.43 1.032 0 .611.11.736 4.764 5.414 2.62 2.633 4.84 4.985 4.93 5.225.701 1.843-.74 3.634-2.65 3.294-.46-.082-1.386-.931-5.792-5.314-2.885-2.868-5.448-5.292-5.697-5.385-.57-.214-1.402.031-1.738.512-.13.185-.236.62-.236.968 0 .607.096.728 2.353 2.979 1.293 1.29 2.532 2.605 2.752 2.921.952 1.369.16 3.365-1.457 3.668-1.237.232-1.138.317-10.925-9.372l-9.22-9.127 2.003-8.76c1.102-4.819 2.18-9.518 2.395-10.444l.391-1.683h6.421c6.093 0 6.41.014 6.208.274z"/></symbol><symbol viewBox="0 0 90 90" id="sStages-4" xmlns="http://www.w3.org/2000/svg"><path fill-rule="evenodd" clip-rule="evenodd" d="M39.678 18.13c-2.479.488-4.423 2.57-4.865 5.211-.082.485-.122.516-1.346 1.002-8.636 3.434-15.475 10.963-18.152 19.985-.95 3.199-1.239 5.83-1.242 11.287l-.001 3.764-.89.46c-2.188 1.131-3.514 3.79-3.11 6.233.435 2.622 2.392 4.657 4.944 5.14 1.019.194 58.95.194 59.968 0 2.552-.483 4.51-2.518 4.944-5.14.404-2.443-.922-5.102-3.11-6.233l-.89-.46-.001-3.764c-.002-4.164-.134-6.163-.555-8.416-1.35-7.233-5.478-13.948-11.419-18.578-2.114-1.648-5.021-3.324-7.42-4.278-1.224-.486-1.264-.517-1.346-1.002-.451-2.699-2.385-4.728-4.972-5.219-.886-.168-9.674-.16-10.537.009zm10.389 4.234c.348.177.638.468.816.815.269.528.275.787.275 11.225 0 10.439.006 10.698.276 11.225.31.607 1.098 1.091 1.777 1.091.679 0 1.467-.484 1.777-1.09.267-.525.275-.792.275-8.955v-8.414l.787.345c.433.19 1.357.663 2.053 1.053l1.266.708v5.309c0 5.05.013 5.334.275 5.848.31.607 1.099 1.091 1.778 1.091.678 0 1.467-.484 1.777-1.091.256-.502.275-.802.275-4.201v-3.661l.7.68c1.581 1.532 3.687 4.473 4.833 6.749.719 1.427 1.666 4.024 2.067 5.664.56 2.297.748 4.436.748 8.552v3.73H18.178v-3.73c0-4.116.187-6.255.748-8.552.4-1.64 1.348-4.237 2.067-5.664 1.146-2.276 3.252-5.217 4.833-6.75l.7-.68v3.662c0 3.399.02 3.7.275 4.2.31.608 1.099 1.092 1.777 1.092.68 0 1.468-.484 1.778-1.091.262-.514.275-.799.275-5.848v-5.309l1.266-.708c.696-.39 1.62-.864 2.053-1.053l.787-.345v8.414c0 8.163.008 8.43.275 8.954.31.607 1.098 1.091 1.777 1.091.68 0 1.468-.484 1.777-1.09.27-.528.276-.787.276-11.226 0-10.434.006-10.697.275-11.224.168-.33.474-.645.787-.81.479-.253.802-.27 5.067-.276 4.303-.006 4.586.01 5.096.27zm24.769 41.053c.607.31 1.091 1.099 1.091 1.778s-.484 1.467-1.091 1.777c-.536.273-.745.275-29.836.275-29.091 0-29.3-.002-29.836-.275-.607-.31-1.091-1.098-1.091-1.777 0-.658.484-1.466 1.062-1.77.505-.267.91-.271 29.836-.277 29.126-.006 29.328-.004 29.865.27z"/></symbol><symbol viewBox="0 0 90 90" id="sStages-5" xmlns="http://www.w3.org/2000/svg"><path fill-rule="evenodd" clip-rule="evenodd" d="M43.253 10.297c-.885.372-1.28.653-2.562 1.822-1.12 1.022-2.777 2.264-4.103 3.076-3.971 2.433-8.101 3.7-13.746 4.217-1.133.104-2.11.278-2.698.482-2.375.822-4.169 2.803-4.827 5.33-.17.65-.23 1.994-.294 6.496-.107 7.426.153 11.88.983 16.86 1.814 10.89 6.796 19.16 15.111 25.082C35.152 76.535 42.628 80 44.794 80c1.234 0 4.51-1.238 8.138-3.077 3.812-1.931 6.447-3.723 9.326-6.34 4.771-4.338 8.36-10.332 10.221-17.07 1.645-5.956 2.233-12.156 2.087-21.998-.064-4.317-.126-5.644-.295-6.292-.659-2.527-2.452-4.507-4.827-5.33-.587-.203-1.564-.377-2.698-.48-7.703-.707-12.767-2.811-18.125-7.535-1.518-1.338-2.447-1.809-3.69-1.87-.701-.034-1.056.027-1.678.289zm2.993 4.952c5.551 4.933 11.497 7.418 19.61 8.196 1.674.16 2.25.27 2.735.52.705.363 1.43 1.238 1.638 1.98.229.813.339 10.75.154 13.913-.173 2.97-.434 5.552-.768 7.59-1.984 12.108-7.923 20.436-18.368 25.756-2.478 1.263-5.811 2.61-6.453 2.61-.265 0-1.365-.354-2.462-.794-13.125-5.263-20.257-14.144-22.415-27.913-.66-4.213-.768-6.145-.755-13.54.009-4.93.06-7.145.175-7.552.226-.802.934-1.676 1.66-2.05.485-.25 1.061-.36 2.734-.52 8.114-.778 14.06-3.263 19.611-8.196.726-.645 1.38-1.173 1.452-1.173.073 0 .726.528 1.452 1.173zm-2.34 12.326c-7.605.416-14.016 5.646-15.982 13.035-.712 2.678-.712 6.076 0 8.753 1.528 5.745 5.766 10.28 11.355 12.151 3.476 1.164 7.554 1.164 11.03 0 5.59-1.872 9.827-6.406 11.355-12.15.737-2.773.715-6.094-.062-8.956-1.296-4.78-4.63-8.833-9.085-11.042-2.585-1.282-5.778-1.946-8.612-1.79zm3.138 4.295c2.492.352 4.976 1.623 7.013 3.587 2.652 2.557 4.02 5.801 4.02 9.53 0 3.739-1.36 6.964-4.02 9.53-2.636 2.54-5.624 3.752-9.263 3.752-3.638 0-6.627-1.211-9.263-3.753-2.667-2.572-4.019-5.776-4.019-9.53 0-3.742 1.36-6.964 4.02-9.53 3.17-3.057 6.942-4.232 11.512-3.586zm3.426 7.296c-.226.102-2.256 2.039-4.512 4.303-2.257 2.264-4.161 4.116-4.232 4.116-.072 0-.72-.579-1.44-1.287-1.505-1.479-1.906-1.648-2.956-1.247-1.106.423-1.632 1.759-1.095 2.78.107.204 1.169 1.334 2.36 2.512 1.779 1.761 2.254 2.16 2.667 2.236 1.114.207 1.077.237 6.517-5.178 2.807-2.795 5.192-5.248 5.3-5.45.107-.204.195-.64.195-.972 0-1.434-1.5-2.405-2.804-1.813z"/></symbol><symbol viewBox="0 0 90 90" id="sStages-6" xmlns="http://www.w3.org/2000/svg"><path fill-rule="evenodd" clip-rule="evenodd" d="M31.328 10.127c-1.297.465-2.197 1.655-2.348 3.105l-.087.836-2.069.002c-3.007.003-4.37.398-6.047 1.752-1.49 1.202-2.428 2.961-2.675 5.017-.083.687-.119 10.942-.095 27.188l.039 26.085.309.81c.886 2.327 2.56 3.987 4.8 4.761l.916.317h41.216l.89-.32c2.37-.855 4.06-2.611 4.828-5.02l.306-.959v-53.54l-.316-.915c-.777-2.248-2.476-3.956-4.76-4.786-.685-.25-1.2-.305-3.31-.358l-2.5-.064-.002-.704c-.006-1.24-.718-2.4-1.846-3.01l-.548-.295-13.145-.025c-9.105-.017-13.272.02-13.556.123zm24.99 5.995v2.054H33.039v-4.108h23.279v2.054zM28.978 19c.14 1.338.856 2.405 1.993 2.97.463.231 1.301.249 13.48.283 8.69.024 13.161-.011 13.516-.107 1.355-.364 2.459-1.824 2.459-3.252v-.74l2.225.046c2.154.044 2.246.058 2.88.431.747.439 1.403 1.264 1.606 2.019.092.34.126 9.35.103 26.577-.035 24.765-.049 26.092-.283 26.612-.342.76-1 1.413-1.807 1.796l-.685.324-19.786-.005c-16.175-.004-19.88-.038-20.3-.188a3.555 3.555 0 01-1.846-1.555l-.38-.646v-26.29c0-21.918.032-26.38.188-26.822.263-.744 1.059-1.577 1.866-1.954.619-.288.878-.32 2.685-.32l2-.002.087.823zm8.1 10.384c-.225.147-1.457 1.32-2.736 2.609-1.28 1.288-2.391 2.342-2.47 2.342-.08 0-.42-.284-.755-.632-1-1.035-1.676-1.216-2.695-.723-.977.473-1.384 1.603-.944 2.626.104.242.92 1.159 1.814 2.037 1.328 1.304 1.721 1.614 2.152 1.695 1.07.2 1.286.04 5.043-3.732 3.037-3.05 3.528-3.601 3.61-4.05.128-.698-.24-1.644-.791-2.037-.593-.422-1.684-.489-2.227-.135zm7.291 4.158c-.542.316-1.06 1.172-1.06 1.751 0 .6.52 1.44 1.086 1.759l.538.302 7.873-.038c7.709-.036 7.881-.043 8.252-.32.678-.506.926-.962.926-1.703 0-.74-.248-1.196-.926-1.703-.37-.276-.54-.283-8.276-.315l-7.898-.033-.515.3zm-6.796 10.382c-.357.081-1.065.705-3.037 2.676l-2.573 2.57-.832-.77c-.885-.819-1.412-1.02-2.254-.863-1.298.243-1.958 1.697-1.329 2.927.143.28.935 1.165 1.76 1.969 1.67 1.628 2.139 1.87 3.12 1.604.448-.12 1.14-.74 3.93-3.517 1.863-1.854 3.487-3.582 3.61-3.84.693-1.46-.759-3.13-2.395-2.756zm6.796 3.311c-.542.316-1.06 1.172-1.06 1.751 0 .6.52 1.44 1.086 1.758l.538.303 7.873-.038c7.709-.036 7.881-.043 8.252-.32.678-.506.926-.962.926-1.703 0-.74-.248-1.196-.926-1.703-.37-.276-.54-.283-8.276-.315l-7.898-.033-.515.3zm-6.796 10.382c-.357.081-1.065.705-3.037 2.676l-2.573 2.57-.832-.77c-.885-.819-1.412-1.02-2.254-.863-1.298.243-1.958 1.697-1.329 2.927.143.28.935 1.165 1.76 1.969 1.67 1.628 2.139 1.87 3.12 1.604.448-.12 1.14-.74 3.93-3.517 1.863-1.854 3.487-3.582 3.61-3.84.693-1.46-.759-3.13-2.395-2.756zm6.796 3.313c-.542.314-1.06 1.169-1.06 1.75 0 .595.52 1.44 1.08 1.754.53.298.568.3 8.298.3 8.582 0 8.37.02 9.008-.873.426-.598.426-1.765 0-2.363-.638-.894-.423-.873-9.027-.87-7.745.004-7.787.005-8.299.302z"/></symbol><symbol viewBox="0 0 90 90" id="sStages-7" xmlns="http://www.w3.org/2000/svg"><path fill-rule="evenodd" clip-rule="evenodd" d="M18.963 15.194c-.461.099-1.388.451-2.06.784-.994.491-1.418.8-2.274 1.656-.87.87-1.154 1.263-1.64 2.268-1.055 2.189-.988.523-.988 24.616s-.067 22.428.989 24.617c.485 1.004.77 1.398 1.639 2.268.857.857 1.278 1.164 2.274 1.655 2.136 1.055-.005.98 28.103.98s25.967.075 28.103-.98c.995-.491 1.415-.797 2.262-1.647.848-.85 1.152-1.27 1.641-2.268 1.069-2.18 1.011-.935.97-21.144l-.035-17.856-.351-1.034c-.877-2.585-2.748-4.597-5.196-5.589l-.9-.364-.096-.666c-.408-2.84-2.367-5.417-5.06-6.663-1.914-.884-.408-.834-24.651-.822-18.189.008-22.034.04-22.73.19zm45.445 4.301c.53.213.999.539 1.489 1.032.67.674 1.284 1.696 1.284 2.135 0 .17-2.813.196-23.948.227l-23.948.034-.902.305a14.17 14.17 0 00-1.51.612c-.335.17-.647.308-.694.308-.047 0-.047-.295.001-.656.274-2.062 1.706-3.727 3.606-4.191.516-.126 5.364-.156 22.255-.139l21.595.022.772.311zm6.448 7.865c1.06.427 2.23 1.597 2.65 2.654.303.758.309.856.312 4.9l.003 4.125-7.607.064-7.606.065-1.08.377c-1.49.52-3.212 1.693-4.18 2.846-.934 1.115-1.836 2.91-2.105 4.19-.303 1.447-.188 3.62.264 4.964 1.054 3.134 3.49 5.407 6.778 6.324.754.21 1.58.239 8.228.283l7.389.05-.043 3.956c-.05 4.567-.11 4.862-1.26 6.12-.752.822-1.606 1.308-2.646 1.504-.564.107-7.436.136-25.398.109l-24.625-.039-.774-.31c-1.058-.426-2.229-1.597-2.654-2.655l-.311-.773V30.788l.311-.773c.563-1.399 2.107-2.646 3.587-2.898.338-.057 11.725-.096 25.304-.086l24.69.018.773.31zm3.03 21.22v5.35h-7.068c-6.077 0-7.166-.029-7.768-.205-2.228-.651-3.852-2.827-3.857-5.166-.002-.786.352-2.002.812-2.786.627-1.071 2.051-2.115 3.279-2.404.266-.063 3.66-.12 7.543-.127l7.058-.013v5.35zm-13.543-1.71c-1.345.679-1.552 2.51-.394 3.484 1.423 1.198 3.498.276 3.512-1.56.013-1.718-1.579-2.7-3.118-1.924z"/></symbol><symbol viewBox="0 0 31 16" id="sStages-arrow" xmlns="http://www.w3.org/2000/svg"><path d="M30.707 8.707a1 1 0 000-1.414L24.343.929a1 1 0 10-1.414 1.414L28.586 8l-5.657 5.657a1 1 0 001.414 1.414l6.364-6.364zM0 9h30V7H0v2z"/></symbol><symbol viewBox="0 0 24 24" id="share-cont" xmlns="http://www.w3.org/2000/svg"><path fill-rule="evenodd" clip-rule="evenodd" d="M9.092 7.462A.892.892 0 017.831 6.2L11.4 2.63l.63-.63.632.63L16.23 6.2a.892.892 0 01-1.262 1.262l-2.046-2.046V16.35a.892.892 0 01-1.785 0V5.416L9.092 7.462zm-1.077 5.02a2.23 2.23 0 00-2.23 2.231v2.825a2.677 2.677 0 002.676 2.677H15.6a2.677 2.677 0 002.677-2.677v-2.825a2.23 2.23 0 00-2.231-2.23.892.892 0 010-1.785 4.015 4.015 0 014.015 4.015v2.825A4.461 4.461 0 0115.6 22H8.46A4.461 4.461 0 014 17.538v-2.825a4.015 4.015 0 014.015-4.015.892.892 0 110 1.784z"/></symbol><symbol viewBox="0 0 18 16" id="telegram" xmlns="http://www.w3.org/2000/svg"><path fill-rule="evenodd" clip-rule="evenodd" d="M.253 8.066l4.491 1.435 8.879-5.716c1.34-.86 1.815-.795.43.469l-6.94 6.375 2.523 1.934 4.14 3.173c.633.413 1.296.136 1.499-.594.846-4.15 1.672-8.3 2.532-12.444.599-2.871-.183-2.418-2.537-1.496L8.795 3.74.515 6.988c-.589.192-.668.967-.262 1.078z"/><path fill-rule="evenodd" clip-rule="evenodd" d="M4.744 9.502l1.543 5.066c.079.298.227.428.356.403.109-.02.198-.156.198-.398.099-1.309.168-2.633.267-3.943l6.945-6.37c1.38-1.265.905-1.335-.43-.469l-8.88 5.711z"/><path fill-rule="evenodd" clip-rule="evenodd" d="M7.112 10.63c-.099 1.31-.168 2.634-.267 3.943 0 .242-.09.378-.198.398.45 0 .598-.06.905-.363l2.083-2.05-2.523-1.928z"/></symbol><symbol viewBox="0 0 20 20" id="telegram-cont" xmlns="http://www.w3.org/2000/svg"><g clip-path="url(#baa)"><path d="M1.375 8.619c5.369-2.389 8.948-3.963 10.74-4.724 5.114-2.172 6.177-2.549 6.87-2.562.152-.002.493.036.713.22.187.154.238.362.262.508.025.147.055.48.031.74-.277 2.974-1.476 10.19-2.086 13.52-.259 1.408-.767 1.88-1.259 1.927-1.07.1-1.882-.722-2.917-1.415-1.621-1.085-2.537-1.76-4.11-2.819-1.818-1.223-.64-1.895.396-2.994.272-.288 4.984-4.664 5.075-5.06.011-.05.022-.236-.086-.333-.107-.098-.266-.065-.381-.038-.163.038-2.752 1.785-7.768 5.242-.735.516-1.4.767-1.997.753-.658-.014-1.923-.38-2.863-.691-1.153-.383-2.07-.585-1.99-1.235.041-.34.498-.685 1.37-1.04z"/></g><defs><clipPath id="baa"><path d="M0 0h20v20H0z"/></clipPath></defs></symbol><symbol viewBox="0 0 18 18" id="viber" xmlns="http://www.w3.org/2000/svg"><path d="M15.169 7.555c.022-2.537-2.14-4.862-4.817-5.186-.056-.006-.112-.017-.174-.028a2.463 2.463 0 00-.408-.045c-.547 0-.693.386-.732.615-.039.224 0 .414.106.559.185.246.503.29.76.324.073.011.146.022.207.034 2.403.536 3.214 1.38 3.61 3.766.011.056.017.129.017.207.017.285.056.877.693.877.05 0 .112-.005.168-.01.592-.09.575-.632.564-.895 0-.073-.005-.145 0-.19.006-.006.006-.017.006-.028z"/><path d="M9.62 1.442c.073.005.14.011.196.017 3.945.609 5.761 2.48 6.27 6.46.011.067.011.15.011.24.006.313.017.956.71.972h.022c.218 0 .391-.067.514-.195.218-.224.201-.565.19-.833-.005-.067-.005-.128-.005-.184.05-4.074-3.476-7.763-7.545-7.902h-.1c-.04 0-.09-.006-.145-.006A2.326 2.326 0 009.525 0c-.648 0-.771.458-.788.738-.028.637.587.681.883.704zm6.27 11.623a4.341 4.341 0 01-.252-.195c-.43-.347-.888-.665-1.335-.978l-.274-.19c-.57-.397-1.079-.593-1.565-.593-.648 0-1.218.358-1.688 1.068-.206.313-.458.47-.77.47a1.49 1.49 0 01-.621-.157c-1.833-.833-3.146-2.107-3.895-3.795-.364-.816-.246-1.347.39-1.777.364-.246 1.035-.704.99-1.581-.056-.995-2.246-3.985-3.174-4.326a1.804 1.804 0 00-1.224-.005C1.41 1.363.645 1.989.265 2.822c-.37.799-.352 1.743.05 2.721 1.151 2.834 2.777 5.298 4.817 7.338 2 1.995 4.46 3.627 7.31 4.856.257.112.525.174.72.213.068.016.123.027.168.039.023.005.045.01.073.01h.022c1.341 0 2.95-1.223 3.443-2.62.452-1.224-.341-1.827-.978-2.314zm-5.678-8.388c-.23.006-.71.017-.877.503-.079.23-.068.425.027.587.14.24.414.313.665.352.9.145 1.364.643 1.454 1.565.044.43.335.732.704.732.028 0 .056 0 .083-.006.447-.056.665-.38.643-.978.006-.62-.318-1.324-.872-1.889-.553-.564-1.218-.882-1.827-.866z"/></symbol><symbol viewBox="0 0 24 24" id="vk" xmlns="http://www.w3.org/2000/svg"><path d="M21.579 6.855c.14-.465 0-.806-.662-.806h-2.193c-.558 0-.813.295-.953.619 0 0-1.115 2.719-2.695 4.482-.51.513-.743.675-1.021.675-.139 0-.341-.162-.341-.627V6.855c0-.558-.161-.806-.626-.806H9.642c-.348 0-.558.258-.558.504 0 .528.79.65.871 2.138v3.228c0 .707-.127.836-.407.836-.743 0-2.551-2.73-3.624-5.853-.209-.607-.42-.852-.98-.852H2.752c-.627 0-.752.295-.752.619 0 .582.743 3.462 3.461 7.27 1.812 2.602 4.363 4.012 6.687 4.012 1.393 0 1.565-.313 1.565-.853v-1.966c0-.626.133-.752.574-.752.324 0 .882.164 2.183 1.417 1.486 1.486 1.732 2.153 2.567 2.153h2.192c.626 0 .939-.313.759-.931-.197-.615-.907-1.51-1.849-2.57-.512-.603-1.277-1.253-1.51-1.578-.325-.42-.231-.604 0-.976.001 0 2.672-3.761 2.95-5.04z"/></symbol><symbol viewBox="0 0 24 24" id="vk-cont" xmlns="http://www.w3.org/2000/svg"><path d="M17.811 6.517l-.25.535s-1.186 2.518-2.63 4.105c-.464.513-.7.668-.956.668-.206 0-.301-.172-.301-.634V6.4h-4.49v.366c0 .535.82.655.82 2.103v2.988c0 .601-.032.834-.316.834-.755 0-2.547-2.586-3.553-5.523l-.25-.769H2.951c-.32 0-.554.217-.554.535 0 .584.688 3.287 3.385 6.91 1.81 2.436 4.189 3.755 6.333 3.755 1.308 0 1.625-.217 1.625-.767v-1.87c0-.467.184-.668.453-.668.302 0 .833.096 2.077 1.32l1.993 1.985h2.849c.251 0 .486-.116.486-.534 0-.551-.72-1.536-1.827-2.704-.451-.6-1.189-1.252-1.423-1.553-.335-.35-.235-.55 0-.917 0 0 2.53-3.556 2.781-4.723.084-.418-.1-.652-.536-.652H17.81z"/></symbol><symbol viewBox="0 0 60 60" id="wave" xmlns="http://www.w3.org/2000/svg"><path fill-rule="evenodd" clip-rule="evenodd" d="M18.545 13.06a6.99 6.99 0 00-1.387.554c-1.47.8-2.384 1.864-4.186 4.874-1.51 2.522-2.296 3.186-3.439 2.902-.539-.134-1.613-1.323-2.369-2.623-1.24-2.134-1.754-2.865-2.647-3.77-1.127-1.144-1.627-1.45-2.363-1.452-1.393 0-2.374 1.22-2.11 2.627.066.355.335.727 1.025 1.416.968.968 1.373 1.534 2.475 3.455.786 1.37 1.736 2.576 2.575 3.27 2.233 1.844 5.23 1.887 7.57.108.999-.76 1.848-1.857 3.228-4.175 1.563-2.626 2.362-3.314 3.512-3.026.633.16 1.468 1.113 2.53 2.893 1.795 3.009 2.819 4.18 4.314 4.93 2.31 1.161 4.86.833 6.75-.867.917-.824 1.64-1.793 2.828-3.79 2.432-4.088 3.72-4.247 5.876-.725 2.57 4.2 3.676 5.31 5.845 5.875 1.46.38 3.022.178 4.397-.57 1.328-.723 2.885-2.622 4.19-5.113.336-.64.892-1.38 1.562-2.077.649-.674 1.097-1.266 1.19-1.571.407-1.331-.63-2.66-2.077-2.66-.5 0-.728.099-1.412.613-1.106.831-2.03 1.982-3.283 4.086-1.123 1.886-2.063 2.996-2.663 3.146-1.071.267-1.914-.38-3.173-2.436-1.492-2.437-2.221-3.463-3.002-4.225-2.279-2.222-5.481-2.451-7.983-.57-.948.712-1.93 1.97-3.233 4.144-1.597 2.663-2.207 3.248-3.242 3.11-.983-.133-1.496-.727-3.601-4.164-.889-1.451-2.262-2.954-3.226-3.531-1.304-.78-2.963-1.024-4.47-.658zm0 21.445a6.99 6.99 0 00-1.387.553c-1.47.8-2.384 1.864-4.186 4.874-1.51 2.522-2.296 3.186-3.439 2.902-.54-.134-1.614-1.324-2.368-2.624-1.545-2.662-2.327-3.667-3.595-4.62-.668-.502-.897-.601-1.396-.601-1.413 0-2.396 1.211-2.13 2.626.066.356.335.728 1.025 1.417.968.968 1.373 1.534 2.475 3.455.786 1.37 1.736 2.575 2.575 3.27 2.233 1.844 5.23 1.887 7.57.108.999-.76 1.848-1.857 3.228-4.175 1.563-2.626 2.362-3.314 3.512-3.026.633.16 1.468 1.113 2.53 2.893 1.795 3.009 2.819 4.18 4.314 4.93 2.31 1.161 4.86.833 6.75-.867.917-.824 1.64-1.793 2.828-3.79 2.432-4.088 3.72-4.247 5.876-.725 2.57 4.199 3.676 5.31 5.845 5.875 1.46.38 3.022.178 4.397-.57 1.325-.721 2.875-2.61 4.19-5.108.3-.572.924-1.423 1.473-2.01 1.14-1.223 1.26-1.431 1.26-2.197 0-1.135-.915-2.04-2.065-2.04-.629 0-.788.065-1.474.594-1.07.826-1.986 1.976-3.214 4.039-1.123 1.886-2.063 2.996-2.663 3.146-1.071.267-1.914-.38-3.173-2.436-1.492-2.437-2.221-3.463-3.002-4.225-2.279-2.222-5.481-2.451-7.983-.57-.948.712-1.93 1.97-3.233 4.144-1.597 2.663-2.207 3.248-3.242 3.11-.983-.133-1.496-.727-3.601-4.164-.889-1.451-2.262-2.954-3.226-3.531-1.304-.78-2.963-1.024-4.47-.657z"/></symbol><symbol viewBox="0 0 18 18" id="whatsapp" xmlns="http://www.w3.org/2000/svg"><path d="M5.026 12.97s3.926 4.225 8.039 4.954c3.15.56 4.531-2.127 4.888-3.463.124-.466 0-.948-.341-1.274-.326-.326-3.228-1.63-3.927-1.677-.48-.031-.869.17-1.21.621l-.699.885c-.279.358-.651.45-.993.264-.698-.388-1.909-1.195-3.383-2.671-1.474-1.476-2.297-2.687-2.685-3.386-.202-.342-.093-.715.264-.994l.885-.7c.45-.356.651-.73.62-1.21-.046-.715-1.35-3.604-1.676-3.93A1.281 1.281 0 003.536.047C2.216.404-.484 1.787.076 4.94c.728 4.1 4.95 8.03 4.95 8.03z"/></symbol><symbol viewBox="0 0 24 24" id="whatsapp-cont" xmlns="http://www.w3.org/2000/svg"><path d="M12.19 1.5C6.497 1.5 1.881 6.08 1.881 11.73c0 1.932.54 3.74 1.48 5.282L1.5 22.5l5.708-1.813a10.33 10.33 0 004.982 1.272c5.694 0 10.31-4.58 10.31-10.23S17.884 1.5 12.19 1.5zm5.127 14.114c-.243.602-1.34 1.15-1.824 1.176-.483.025-.497.375-3.133-.77-2.635-1.146-4.221-3.93-4.346-4.11-.125-.179-1.02-1.455-.973-2.74.05-1.285.753-1.891 1.004-2.144a1.01 1.01 0 01.714-.3c.207-.004.342-.006.495 0 .154.005.384-.033.584.498.2.53.677 1.835.738 1.968.061.133.099.287.005.458-.095.172-.143.278-.28.426-.137.148-.289.33-.412.443-.137.125-.28.261-.136.528.144.267.64 1.142 1.396 1.863.972.927 1.81 1.234 2.067 1.374.259.14.413.125.573-.043.16-.17.687-.739.872-.993.186-.255.36-.205.597-.109.238.096 1.508.776 1.766.917.259.14.431.212.493.323.062.112.042.634-.2 1.236z"/></symbol><symbol viewBox="0 0 20 20" id="zoom" xmlns="http://www.w3.org/2000/svg"><path d="M18.704 17.285l-3.399-3.39a7.917 7.917 0 001.69-4.898 7.997 7.997 0 10-7.998 7.998 7.917 7.917 0 004.899-1.69l3.389 3.4a.999.999 0 001.42 0 .999.999 0 000-1.42zM3 8.997a5.998 5.998 0 1111.996 0A5.998 5.998 0 013 8.997z"/></symbol></svg>