<svg width="60" height="60" viewBox="0 0 60 60" fill="none" xmlns="http://www.w3.org/2000/svg">
<g clip-path="url(#clip0_228_1694)">
<path fill-rule="evenodd" clip-rule="evenodd" d="M29.1797 0.102923C28.653 0.264056 27.9076 1.03855 27.757 1.58113C27.6723 1.88581 27.6326 7.16019 27.6322 18.1459L27.6315 34.2637L27.8952 34.7798C28.0403 35.0636 28.3615 35.4571 28.6092 35.6542C29.0248 35.9849 29.1302 36.0126 29.9753 36.0126C30.8203 36.0126 30.9258 35.9849 31.3413 35.6542C31.5891 35.4571 31.9111 35.0622 32.057 34.7766L32.3222 34.2572L32.2914 17.9084L32.2604 1.55945L31.9823 1.11214C31.4297 0.223157 30.2155 -0.214069 29.1797 0.102923ZM16.9089 33.3258C15.7433 33.9319 15.2599 35.239 15.7851 36.3641C15.9317 36.6782 17.6428 38.4624 20.9681 41.7689C25.6287 46.403 25.9861 46.7311 26.8112 47.1319C29.0292 48.2092 31.5094 48.1189 33.5939 46.8848C34.59 46.2952 43.966 37.071 44.288 36.3641C44.7262 35.4014 44.422 34.2691 43.5354 33.5637C42.9729 33.1163 41.8582 32.997 41.1923 33.3129C40.9636 33.4214 38.7087 35.5462 36.1673 38.0475C33.6319 40.5433 31.3904 42.702 31.1864 42.8447C30.7105 43.1776 29.9388 43.2817 29.271 43.1029C28.7985 42.9764 28.2551 42.4744 23.9401 38.1768C21.2975 35.5449 18.9869 33.3353 18.8055 33.2665C18.3231 33.0837 17.3137 33.1152 16.9089 33.3258ZM1.52343 55.4218C0.969481 55.5822 0.248778 56.3499 0.0865904 56.9525C-0.193957 57.9943 0.222879 59.0893 1.10999 59.6407L1.55729 59.9188H29.9753H58.3932L58.8405 59.6407C59.0866 59.4878 59.4294 59.1488 59.6023 58.8876C59.8642 58.4918 59.9167 58.2824 59.9167 57.6337C59.9167 56.9849 59.8642 56.7755 59.6023 56.3798C59.4294 56.1185 59.0866 55.7795 58.8405 55.6266L58.3932 55.3485L30.151 55.3293C12.548 55.3173 1.76366 55.3521 1.52343 55.4218Z" fill="#00BCB6"/>
</g>
<defs>
<clipPath id="clip0_228_1694">
<rect width="60" height="60" fill="white"/>
</clipPath>
</defs>
</svg>
