<svg width="30" height="30" viewBox="0 0 30 30" fill="none" xmlns="http://www.w3.org/2000/svg">
<g clip-path="url(#clip0_997_3265)">
<path fill-rule="evenodd" clip-rule="evenodd" d="M4.0606 0.0744675C1.95437 0.502992 0.387014 2.13395 0.0590369 4.23845C0.00478084 4.5864 -0.00911172 7.44146 0.00534406 15.2877C0.026621 26.838 -0.00172735 25.9279 0.367302 26.9146C0.782201 28.024 1.99874 29.2409 3.10896 29.6569C4.08982 30.0246 3.22335 29.9996 15.0119 29.9996C26.8005 29.9996 25.9341 30.0246 26.9149 29.6569C28.0255 29.2408 29.2411 28.0247 29.6571 26.9137C30.0245 25.9324 29.9996 26.7993 29.9996 15.006C29.9996 5.11572 29.9909 4.17516 29.8953 3.83115C29.711 3.16817 29.5304 2.75173 29.2242 2.28439C28.5123 1.19783 27.592 0.535233 26.2145 0.117476C25.8984 0.0216297 24.9709 0.011926 15.1684 0.002285C6.51107 -0.00629176 4.3897 0.00748113 4.0606 0.0744675ZM14.0107 7.99432V14.0043H8.00308H1.99549V9.32215C1.99549 4.23839 1.99179 4.29886 2.34643 3.5987C2.57034 3.15665 3.11365 2.60298 3.55383 2.36828C4.27337 1.98458 4.14696 1.99297 9.3016 1.98846L14.0107 1.98433V7.99432ZM25.7322 2.07773C26.8174 2.36052 27.6514 3.19221 27.9326 4.27201C28.0145 4.58659 28.0284 5.31981 28.0284 9.32215V14.0043H22.0208H16.0132V7.99432V1.98433H20.6935C24.6402 1.98433 25.4299 1.99898 25.7322 2.07773ZM7.59632 4.07255C7.36452 4.17992 7.1567 4.40078 7.06859 4.63342C7.0306 4.73365 7.00182 5.27881 7.00182 5.89733V6.98508L5.81719 7.00449C4.52112 7.02577 4.46786 7.04023 4.15834 7.45498C3.97743 7.69739 3.97743 8.29125 4.15834 8.53365C4.46774 8.94822 4.52149 8.96287 5.81344 8.98409L6.99431 9.0035L7.01371 10.1848C7.03492 11.4773 7.04956 11.5311 7.46396 11.8406C7.70627 12.0216 8.29989 12.0216 8.5422 11.8406C8.9566 11.5311 8.97124 11.4773 8.99246 10.1848L9.01186 9.0035L10.1927 8.98409C11.4847 8.96287 11.5384 8.94822 11.8478 8.53365C12.0287 8.29125 12.0287 7.69739 11.8478 7.45498C11.5384 7.04042 11.4847 7.02577 10.1927 7.00455L9.01186 6.98514L8.99246 5.8038C8.9713 4.51591 8.95547 4.45675 8.55146 4.15494C8.34407 4.00005 7.8457 3.95705 7.59632 4.07255ZM18.6071 7.07986C18.1927 7.26229 17.9545 7.74177 18.0431 8.21475C18.098 8.50723 18.4103 8.85318 18.6943 8.93595C18.8472 8.98058 19.9969 8.99642 22.1571 8.98371C25.3105 8.96518 25.3953 8.96149 25.5638 8.83559C25.8921 8.59025 25.9946 8.39023 25.9946 7.99432C25.9946 7.59841 25.8921 7.39839 25.5638 7.15305C25.395 7.0269 25.3151 7.02364 22.0945 7.00993C19.4494 6.9986 18.7602 7.01244 18.6071 7.07986ZM14.0107 22.0176V28.0276H9.33038C4.18613 28.0276 4.28644 28.0343 3.55189 27.6426C3.11346 27.4088 2.56996 26.8546 2.34643 26.4132C1.99179 25.7131 1.99549 25.7736 1.99549 20.6898V16.0076H8.00308H14.0107V22.0176ZM28.0284 20.6318C28.0284 23.5153 28.0044 25.3828 27.9645 25.5929C27.8097 26.4093 27.1908 27.2594 26.472 27.6426C25.7374 28.0343 25.8378 28.0276 20.6935 28.0276H16.0132V22.0176V16.0076H22.0208H28.0284V20.6318ZM5.4486 18.9927C5.03458 19.1968 4.81561 19.6504 4.9036 20.1217C4.93996 20.3165 5.0934 20.5058 5.76844 21.1881L6.58911 22.0176L5.76844 22.8471C4.88983 23.7353 4.80954 23.8762 4.90191 24.3688C4.95742 24.6645 5.35724 25.0645 5.65286 25.12C6.1453 25.2124 6.2861 25.1321 7.17391 24.2532L8.00308 23.4322L8.83225 24.2532C9.72006 25.1321 9.86087 25.2124 10.3533 25.12C10.6489 25.0645 11.0487 24.6645 11.1043 24.3688C11.1966 23.8762 11.1163 23.7353 10.2377 22.8471L9.41706 22.0176L10.2377 21.1881C11.1163 20.3 11.1966 20.1591 11.1043 19.6665C11.0487 19.3707 10.6489 18.9708 10.3533 18.9152C9.8608 18.8228 9.72013 18.903 8.83119 19.7832L8.00102 20.6052L7.20413 19.812C6.76589 19.3758 6.32803 18.9893 6.23115 18.9532C5.97996 18.8594 5.68909 18.8742 5.4486 18.9927ZM18.6071 19.0998C18.1927 19.2823 17.9545 19.7618 18.0431 20.2347C18.098 20.5272 18.4103 20.8732 18.6943 20.9559C18.8472 21.0006 19.9969 21.0164 22.1571 21.0037C25.3105 20.9852 25.3953 20.9815 25.5638 20.8556C25.8921 20.6102 25.9946 20.4102 25.9946 20.0143C25.9946 19.6184 25.8921 19.4184 25.5638 19.173C25.395 19.0469 25.3151 19.0436 22.0945 19.0299C19.4494 19.0186 18.7602 19.0324 18.6071 19.0998ZM18.6071 23.1065C18.1927 23.2889 17.9545 23.7684 18.0431 24.2414C18.098 24.5339 18.4103 24.8798 18.6943 24.9626C18.8472 25.0072 19.9969 25.0231 22.1571 25.0104C25.3105 24.9918 25.3953 24.9881 25.5638 24.8622C25.8921 24.6169 25.9946 24.4169 25.9946 24.021C25.9946 23.625 25.8921 23.425 25.5638 23.1797C25.395 23.0535 25.3151 23.0503 22.0945 23.0366C19.4494 23.0252 18.7602 23.0391 18.6071 23.1065Z" fill="#00BCB6"/>
</g>
<defs>
<clipPath id="clip0_997_3265">
<rect width="30" height="30" fill="white"/>
</clipPath>
</defs>
</svg>
