<svg width="12" height="16" viewBox="0 0 12 16" fill="none" xmlns="http://www.w3.org/2000/svg">
<path fill-rule="evenodd" clip-rule="evenodd" d="M5.25914 0.0271879C2.82267 0.262209 0.747243 2.08645 0.158798 4.51026C0.0267961 5.05397 -0.00190555 5.31988 9.54301e-05 5.97973C0.00215894 6.65857 0.037395 6.94027 0.201882 7.5918C0.599577 9.16708 1.56905 11.0038 3.06407 13.0144C3.74568 13.9312 4.60932 14.9592 5.2346 15.5982C5.5329 15.903 5.61479 15.9697 5.71193 15.9867C5.94964 16.0283 6.04046 15.9846 6.35512 15.6771C7.7019 14.3607 9.25726 12.3373 10.2301 10.636C10.4608 10.2324 10.895 9.32553 11.0598 8.90304C11.7818 7.05132 11.8635 5.41936 11.3109 3.88495C10.7914 2.44225 9.69482 1.22821 8.31477 0.567734C7.35867 0.110166 6.31435 -0.0745807 5.25914 0.0271879ZM6.40814 2.86533C6.95494 2.97817 7.42752 3.23339 7.83297 3.63483C8.18136 3.97978 8.40847 4.35309 8.56526 4.83855C8.68041 5.19497 8.70921 5.81981 8.62883 6.21654C8.40137 7.33909 7.5795 8.17859 6.43885 8.45348C6.14292 8.52479 5.51543 8.52479 5.2195 8.45348C4.08857 8.18094 3.2611 7.34259 3.03368 6.23898C2.93263 5.74849 2.98262 5.09336 3.15461 4.65446C3.31297 4.25035 3.49906 3.96706 3.821 3.63983C4.4847 2.96529 5.46728 2.67111 6.40814 2.86533Z" fill="#00BCB6"/>
</svg>
