<svg width="22" height="7" viewBox="0 0 22 7" fill="none" xmlns="http://www.w3.org/2000/svg">
<path d="M0.91 7V-4.76837e-07H4.36C5.18667 -4.76837e-07 5.78667 0.173333 6.16 0.52C6.54 0.866667 6.73 1.42333 6.73 2.19C6.73 2.95667 6.54333 3.51333 6.17 3.86C5.79667 4.20667 5.19333 4.38 4.36 4.38H1.78V7H0.91ZM4.31 0.82H1.78V3.56H4.31C4.85 3.56 5.24333 3.45333 5.49 3.24C5.73667 3.02 5.86 2.67 5.86 2.19C5.86 1.71 5.73667 1.36333 5.49 1.15C5.24333 0.93 4.85 0.82 4.31 0.82ZM10.9682 7H8.0682V-4.76837e-07H10.9682C12.2215 -4.76837e-07 13.1315 0.276666 13.6982 0.83C14.2649 1.38333 14.5482 2.27333 14.5482 3.5C14.5482 4.72667 14.2649 5.61667 13.6982 6.17C13.1315 6.72333 12.2215 7 10.9682 7ZM10.9482 0.82H8.9382V6.18H10.9482C11.9015 6.18 12.5949 5.96667 13.0282 5.54C13.4615 5.11333 13.6782 4.43333 13.6782 3.5C13.6782 2.56667 13.4615 1.88667 13.0282 1.46C12.5949 1.03333 11.9015 0.82 10.9482 0.82ZM16.9363 7H16.0663V-4.76837e-07H21.6863V0.82H16.9363V3.09H21.1863V3.91H16.9363V7Z" fill="#00BCB6"/>
</svg>
