<svg width="20" height="20" viewBox="0 0 20 20" fill="none" xmlns="http://www.w3.org/2000/svg">
<g clip-path="url(#clip0_1111_4304)">
<path fill-rule="evenodd" clip-rule="evenodd" d="M4.10362 0.0826636C3.11268 0.558434 0.821801 3.16222 0.137061 4.59099C-0.0245449 4.92817 -0.0343846 5.06701 0.061303 5.65744C0.389935 7.68543 1.59297 10.1746 3.31397 12.3878C3.99959 13.2695 4.50742 13.8421 5.35198 14.6858C7.91682 17.2478 10.7845 19.0346 13.4791 19.7495C14.0045 19.8889 14.6439 19.9998 14.9244 20C15.8231 20.0008 19.3665 17.0755 19.9175 15.8779C20.0451 15.6006 20.0277 15.307 19.8636 14.9716C19.6999 14.637 19.4799 14.4452 18.5455 13.8226C16.4858 12.45 15.0327 11.7022 14.402 11.6904C13.9248 11.6813 13.693 11.8489 12.8737 12.7952C12.6018 13.1092 12.3623 13.3767 12.3414 13.3897C12.2846 13.4248 11.7523 13.2244 11.2333 12.9725C9.42815 12.0966 7.93066 10.6074 7.04992 8.8123C6.70653 8.11238 6.56602 7.71028 6.63561 7.62644C6.66479 7.59125 6.91379 7.37069 7.18897 7.13632C8.0926 6.36665 8.31033 6.07146 8.31054 5.61575C8.31083 4.9807 7.59778 3.58296 6.21913 1.51589C5.8852 1.01523 5.53038 0.523994 5.43065 0.424262C5.04169 0.0352993 4.49529 -0.105376 4.10362 0.0826636ZM10.6704 1.32127C10.6704 1.98528 10.6708 1.98837 10.7642 1.98841C10.8158 1.98841 11.0593 2.00751 11.3053 2.03086C13.8784 2.27485 16.0651 3.76558 17.2205 6.06333C17.6419 6.9015 17.8774 7.75352 17.9711 8.77915L18.0211 9.32651H18.6819H19.3428V9.03678C19.3428 8.60412 19.2328 7.82907 19.0882 7.24181C18.6393 5.41949 17.5568 3.7218 16.1115 2.57317C15.078 1.75188 13.8086 1.13381 12.6063 0.866469C12.1074 0.755563 11.3213 0.654163 10.9601 0.654163H10.6704V1.32127ZM4.6064 1.54016C4.80287 1.77352 5.644 3.06808 5.97784 3.65092C6.15354 3.95758 6.44498 4.50356 6.62556 4.86417L6.95386 5.51985L6.71704 5.74879C6.58674 5.87471 6.33946 6.09118 6.16747 6.22986C5.73931 6.575 5.22006 7.11881 5.18491 7.25882C5.07071 7.71379 5.63996 9.21427 6.35684 10.3479C6.9145 11.2297 7.72945 12.1575 8.54402 12.8378C9.5313 13.6623 10.8878 14.4051 11.9999 14.7303C12.4126 14.851 12.6535 14.8638 12.8235 14.774C12.9833 14.6896 13.5686 14.0828 14.0463 13.5063C14.2601 13.2483 14.4419 13.0373 14.4503 13.0373C14.4996 13.0373 15.8768 13.7502 16.346 14.0187C16.9839 14.3837 18.4064 15.3189 18.5274 15.4527L18.6084 15.5425L18.0479 16.1072C17.1774 16.9841 16.3398 17.6847 15.3481 18.3651C14.8591 18.7005 14.9488 18.6896 14.1358 18.5125C9.4635 17.4946 3.80254 12.2868 1.89988 7.25624C1.68316 6.68324 1.43625 5.77677 1.38125 5.3522L1.34444 5.0678L1.63583 4.6434C2.31048 3.66084 2.85451 3.0052 3.74363 2.10303C4.12217 1.7189 4.44551 1.40465 4.4621 1.40465C4.4787 1.40465 4.54365 1.46561 4.6064 1.54016ZM10.6704 4.65032V5.311L11.0961 5.36258C12.0472 5.47786 12.8334 5.85478 13.4878 6.50916C14.1421 7.16351 14.5191 7.94973 14.6343 8.90081L14.6859 9.32651H15.3466H16.0072V9.08368C16.0072 8.95014 15.9769 8.66403 15.9399 8.44785C15.6429 6.71451 14.5326 5.24863 12.9427 4.49063C12.3514 4.20866 11.465 3.98968 10.9151 3.98968H10.6704V4.65032Z" fill="#00BCB6"/>
</g>
<defs>
<clipPath id="clip0_1111_4304">
<rect width="20" height="20" fill="white"/>
</clipPath>
</defs>
</svg>
