<svg width="90" height="90" viewBox="0 0 90 90" fill="none" xmlns="http://www.w3.org/2000/svg">
<path fill-rule="evenodd" clip-rule="evenodd" d="M18.9629 15.1942C18.5019 15.293 17.575 15.6455 16.9029 15.9777C15.9085 16.4693 15.4848 16.7778 14.6287 17.6339C13.7595 18.5033 13.4746 18.8974 12.9898 19.9021C11.9339 22.0908 12.0008 20.4254 12.0008 44.5184C12.0008 68.6113 11.9339 66.946 12.9898 69.1346C13.4746 70.1393 13.7595 70.5335 14.6287 71.4028C15.4857 72.2598 15.9074 72.5667 16.9029 73.0581C19.0391 74.1126 16.8981 74.0379 45.0059 74.0379C73.1138 74.0379 70.9728 74.1126 73.109 73.0581C74.1043 72.5667 74.5239 72.2613 75.3713 71.4114C76.2186 70.5616 76.5228 70.1409 77.012 69.1432C78.0806 66.9632 78.0235 68.2076 77.9827 47.9994L77.9466 30.1431L77.5957 29.109C76.7188 26.5241 74.8481 24.5121 72.3998 23.5203L71.5002 23.1559L71.4043 22.49C70.9956 19.6504 69.0375 17.0728 66.3432 15.8274C64.4298 14.9428 65.9364 14.9931 41.6929 15.0045C23.5043 15.0131 19.6591 15.0451 18.9629 15.1942ZM64.4084 19.4955C64.9374 19.7085 65.4066 20.0336 65.8967 20.5269C66.5664 21.2008 67.1812 22.2226 67.1812 22.6616C67.1812 22.8316 64.3684 22.8582 43.2332 22.8887L19.2852 22.9232L18.3827 23.228C17.8863 23.3956 17.2065 23.6713 16.8721 23.8404C16.5376 24.0096 16.2256 24.148 16.1786 24.148C16.1316 24.148 16.1324 23.853 16.1802 23.4924C16.4538 21.4296 17.8861 19.7648 19.7859 19.3009C20.3018 19.1751 25.15 19.1448 42.0406 19.1622L63.6358 19.1844L64.4084 19.4955ZM70.8556 27.3598C71.9169 27.7866 73.086 28.9571 73.5067 30.0142C73.8087 30.7724 73.8147 30.8696 73.8178 34.9134L73.8209 39.039L66.2143 39.1035L58.6076 39.1679L57.528 39.5449C56.0371 40.0654 54.3156 41.2377 53.3486 42.3909C52.4138 43.5058 51.5122 45.3003 51.2434 46.5812C50.9398 48.0284 51.0551 50.2005 51.5072 51.5448C52.561 54.6793 54.9964 56.9516 58.2853 57.8692C59.0392 58.0794 59.8656 58.1079 66.5127 58.1523L73.902 58.2015L73.8588 62.1575C73.8089 66.7245 73.7481 67.0202 72.5986 68.278C71.8469 69.1004 70.9934 69.5858 69.9531 69.7825C69.3888 69.8891 62.5169 69.9183 44.5547 69.8905L19.9298 69.8523L19.1562 69.5414C18.0981 69.1159 16.9274 67.9451 16.5019 66.887L16.1909 66.1135V48.4506V30.7877L16.502 30.0151C17.0653 28.616 18.609 27.3686 20.0886 27.1171C20.4267 27.0596 31.8136 27.0206 45.3927 27.0307L70.0821 27.0489L70.8556 27.3598ZM73.8854 48.5795V53.93H66.8179C60.741 53.93 59.6522 53.9012 59.0501 53.7252C56.8223 53.0738 55.1981 50.8984 55.1926 48.5588C55.1908 47.7732 55.5455 46.5567 56.005 45.7725C56.6325 44.7019 58.0561 43.6584 59.284 43.3691C59.5502 43.3063 62.9443 43.2492 66.8267 43.242L73.8854 43.2291V48.5795ZM60.3438 46.8713C58.9993 47.5498 58.7923 49.3809 59.9496 50.3548C61.3731 51.5526 63.4478 50.6314 63.462 48.7953C63.4752 47.0766 61.8831 46.0942 60.3438 46.8713Z" fill="#00BCB6"/>
</svg>
