<svg width="90" height="90" viewBox="0 0 90 90" fill="none" xmlns="http://www.w3.org/2000/svg">
<path fill-rule="evenodd" clip-rule="evenodd" d="M43.2527 10.297C42.3679 10.669 41.9724 10.9504 40.691 12.1191C39.5702 13.1413 37.9136 14.3834 36.5879 15.1955C32.617 17.6281 28.4866 18.8951 22.8424 19.4121C21.7087 19.5159 20.7311 19.6904 20.1444 19.8935C17.769 20.7162 15.9753 22.6968 15.3174 25.2232C15.1479 25.8741 15.0869 27.2179 15.0225 31.7198C14.9164 39.1461 15.1761 43.5999 16.0058 48.5808C17.8196 59.4708 22.8018 67.7403 31.117 73.662C35.1516 76.5353 42.6282 80 44.7941 80C46.0283 80 49.3035 78.7618 52.932 76.9232C56.7437 74.992 59.3788 73.2004 62.2576 70.5833C67.029 66.2454 70.6187 60.2507 72.4792 53.5135C74.1241 47.5572 74.7122 41.3567 74.5662 31.5147C74.5022 27.1977 74.4399 25.8708 74.2711 25.2232C73.6125 22.6962 71.8191 20.7162 69.4438 19.8935C68.8572 19.6904 67.8796 19.5159 66.7459 19.4121C59.0431 18.7065 53.979 16.6016 48.6208 11.8782C47.1034 10.5405 46.1736 10.0694 44.9309 10.0087C44.2297 9.97449 43.8752 10.0354 43.2527 10.297ZM46.2458 15.2493C51.7971 20.1824 57.7431 22.6674 65.8569 23.4453C67.5298 23.6058 68.1063 23.7153 68.591 23.9647C69.2961 24.3275 70.0207 25.2034 70.229 25.9447C70.4576 26.7582 70.5677 36.6948 70.3832 39.8577C70.2099 42.8289 69.9485 45.4099 69.6145 47.4485C67.6313 59.5559 61.6923 67.8836 51.2468 73.2043C48.7687 74.4665 45.436 75.8148 44.7941 75.8148C44.5293 75.8148 43.4293 75.4595 42.3322 75.0195C29.2067 69.7565 22.0748 60.8755 19.9167 47.1066C19.2565 42.8942 19.1487 40.962 19.162 33.5663C19.1709 28.6369 19.2222 26.4222 19.3368 26.0154C19.563 25.2126 20.2707 24.3386 20.9972 23.9647C21.4819 23.7153 22.0584 23.6058 23.7314 23.4453C31.8452 22.6674 37.7912 20.1824 43.3424 15.2493C44.0684 14.6042 44.7216 14.0764 44.7941 14.0764C44.8666 14.0764 45.5198 14.6042 46.2458 15.2493ZM43.9051 27.5751C36.3008 27.9913 29.8899 33.2205 27.9244 40.61C27.2121 43.2875 27.2121 46.6857 27.9244 49.3633C29.4524 55.108 33.6898 59.6425 39.2792 61.514C42.7554 62.6781 46.8328 62.6781 50.309 61.514C55.8984 59.6425 60.1359 55.108 61.6639 49.3633C62.4013 46.591 62.3786 43.2695 61.6025 40.4081C60.3057 35.6273 56.9717 31.5749 52.5173 29.3659C49.9325 28.0841 46.7394 27.42 43.9051 27.5751ZM47.0436 31.8699C49.5362 32.2223 52.0201 33.4928 54.0571 35.4568C56.7091 38.0142 58.0779 41.2584 58.0779 44.9866C58.0779 48.726 56.717 51.9514 54.0571 54.5164C51.4214 57.0579 48.4326 58.2686 44.7941 58.2686C41.1556 58.2686 38.1669 57.0579 35.5312 54.5164C32.8635 51.9439 31.5122 48.7398 31.5122 44.9866C31.5122 41.2444 32.8713 38.0218 35.5312 35.4568C38.7028 32.3986 42.4739 31.2236 47.0436 31.8699ZM50.4701 39.1657C50.2444 39.2681 48.2138 41.2045 45.9575 43.4686C43.7013 45.7327 41.7969 47.5853 41.7258 47.5853C41.6545 47.5853 41.0067 47.0061 40.2862 46.298C38.781 44.8194 38.3805 44.6504 37.3305 45.0515C36.2239 45.4741 35.6976 46.8097 36.2351 47.8315C36.342 48.0346 37.4036 49.1648 38.5944 50.3433C40.374 52.1045 40.8488 52.5025 41.2616 52.5791C42.3764 52.7859 42.339 52.8158 47.7785 47.4008C50.586 44.6061 52.9708 42.1534 53.0783 41.9503C53.186 41.7471 53.2739 41.3101 53.2739 40.979C53.2739 39.5448 51.7731 38.5741 50.4701 39.1657Z" fill="#00BCB6"/>
</svg>
