<svg width="90" height="90" viewBox="0 0 90 90" fill="none" xmlns="http://www.w3.org/2000/svg">
<path fill-rule="evenodd" clip-rule="evenodd" d="M20.5893 13.1247C18.4096 13.5527 16.5567 15.4437 16.1343 17.6713C15.9552 18.6149 15.9552 64.75 16.1343 65.6935C16.5667 67.9739 18.4083 69.8155 20.6887 70.2479C21.0645 70.3193 21.8785 70.3776 22.4974 70.3776H23.6228V71.503C23.6228 72.1219 23.6811 72.9359 23.7524 73.3117C24.1849 75.5921 26.0265 77.4336 28.3068 77.8661C29.2479 78.0446 67.5158 78.0446 68.4569 77.8661C70.7373 77.4336 72.5789 75.5921 73.0113 73.3117C73.1903 72.3682 73.1903 26.233 73.0113 25.2895C72.5789 23.0091 70.7373 21.1676 68.4569 20.7351C68.0811 20.6638 67.2671 20.6055 66.6482 20.6055H65.5228V19.48C65.5228 18.8612 65.4645 18.0472 65.3931 17.6713C64.9607 15.391 63.1191 13.5494 60.8387 13.1169C59.9908 12.9561 21.4097 12.9636 20.5893 13.1247ZM60.7012 17.052C61.4592 17.4387 61.7137 18.0434 61.7137 19.4577V20.6055L47.9692 20.6074C32.9798 20.6094 33.356 20.5924 31.9504 21.3338C31.0481 21.8095 24.8269 28.0308 24.3511 28.933C23.5987 30.3595 23.6267 29.5883 23.6247 48.888L23.6228 66.5685H22.475C21.0607 66.5685 20.4561 66.314 20.0693 65.556C19.8159 65.0592 19.8137 64.8564 19.8137 41.6824C19.8137 18.5178 19.816 18.3054 20.0691 17.8094C20.2251 17.5035 20.509 17.2115 20.7991 17.0582C21.2656 16.8119 21.6098 16.8076 40.737 16.802C59.9986 16.7964 60.2054 16.7991 60.7012 17.052ZM35.0501 28.2237V32.0327H31.241H27.4319V31.7236C27.4319 31.5536 27.4917 31.2535 27.565 31.057C27.7336 30.6036 33.46 24.8291 33.9708 24.5974C34.1803 24.5023 34.5089 24.4223 34.7009 24.4195L35.0501 24.4146V28.2237ZM68.3194 24.6702C68.642 24.8347 68.9117 25.1044 69.0763 25.427C69.3297 25.9239 69.3319 26.1266 69.3319 49.3006C69.3319 72.4746 69.3297 72.6774 69.0763 73.1742C68.9117 73.4968 68.642 73.7665 68.3194 73.9311C67.8237 74.184 67.611 74.1867 48.3819 74.1867C29.1527 74.1867 28.94 74.184 28.4444 73.9311C28.1217 73.7665 27.852 73.4968 27.6875 73.1742C27.4348 72.6789 27.4319 72.4636 27.4319 54.2575V35.8418H32.3888C37.1061 35.8418 37.3698 35.8295 37.8467 35.5862C38.1693 35.4217 38.439 35.152 38.6036 34.8294C38.8468 34.3525 38.8592 34.0888 38.8592 29.3715V24.4146H53.3388C67.6 24.4146 67.8259 24.4184 68.3194 24.6702ZM32.2264 40.1667C31.6903 40.4497 31.241 41.1988 31.241 41.8094C31.241 42.4394 31.6901 43.1709 32.2534 43.4584C32.7476 43.7104 32.9703 43.714 48.3819 43.714C63.7935 43.714 64.0162 43.7104 64.5103 43.4584C65.0737 43.1709 65.5228 42.4394 65.5228 41.8094C65.5228 41.1794 65.0737 40.4479 64.5103 40.1605C64.016 39.9083 63.7993 39.905 48.3552 39.9105C33.0203 39.9159 32.6915 39.9212 32.2264 40.1667ZM32.2264 47.7849C31.6903 48.0679 31.241 48.817 31.241 49.4276C31.241 50.0576 31.6901 50.7891 32.2534 51.0765C32.7476 51.3286 32.9703 51.3321 48.3819 51.3321C63.7935 51.3321 64.0162 51.3286 64.5103 51.0765C65.0737 50.7891 65.5228 50.0576 65.5228 49.4276C65.5228 48.7976 65.0737 48.0661 64.5103 47.7786C64.016 47.5265 63.7993 47.5232 48.3552 47.5286C33.0203 47.5341 32.6915 47.5394 32.2264 47.7849ZM32.2264 55.403C31.6903 55.686 31.241 56.4352 31.241 57.0458C31.241 57.6758 31.6901 58.4073 32.2534 58.6947C32.7476 58.9467 32.9703 58.9503 48.3819 58.9503C63.7935 58.9503 64.0162 58.9467 64.5103 58.6947C65.0737 58.4073 65.5228 57.6758 65.5228 57.0458C65.5228 56.4157 65.0737 55.6843 64.5103 55.3968C64.016 55.1446 63.7993 55.1413 48.3552 55.1468C33.0203 55.1523 32.6915 55.1576 32.2264 55.403ZM32.2264 63.0212C31.6903 63.3042 31.241 64.0533 31.241 64.6639C31.241 65.294 31.6901 66.0254 32.2534 66.3129C32.7476 66.5649 32.9703 66.5685 48.3819 66.5685C63.7935 66.5685 64.0162 66.5649 64.5103 66.3129C65.0737 66.0254 65.5228 65.294 65.5228 64.6639C65.5228 64.0339 65.0737 63.3024 64.5103 63.015C64.016 62.7628 63.7993 62.7595 48.3552 62.765C33.0203 62.7704 32.6915 62.7758 32.2264 63.0212Z" fill="#00BCB6"/>
</svg>
