<svg width="90" height="90" viewBox="0 0 90 90" fill="none" xmlns="http://www.w3.org/2000/svg">
<path fill-rule="evenodd" clip-rule="evenodd" d="M31.3279 10.1267C30.0313 10.5921 29.1315 11.7822 28.9799 13.232L28.8926 14.0682L26.824 14.0703C23.8167 14.0732 22.4545 14.4677 20.7772 15.8215C19.2875 17.0237 18.3492 18.7834 18.1017 20.8394C18.019 21.526 17.9834 31.7805 18.0073 48.0269L18.0457 74.112L18.3545 74.9226C19.2405 77.2492 20.9144 78.9095 23.1545 79.6834L24.0706 80H44.6786H65.2865L66.1765 79.6793C68.5475 78.8249 70.2367 77.069 71.0055 74.6597L71.3114 73.7012V46.9314V20.1616L70.9948 19.2456C70.2182 16.9976 68.5194 15.2899 66.2341 14.4596C65.5497 14.2109 65.0343 14.1552 62.9245 14.1016L60.4255 14.0383L60.4225 13.3343C60.4171 12.0944 59.7051 10.9331 58.5769 10.3243L58.0292 10.0288L44.8839 10.004C35.7795 9.98677 31.6124 10.0246 31.3279 10.1267ZM56.3176 16.1222V18.1761H44.6786H33.0395V16.1222V14.0682H44.6786H56.3176V16.1222ZM28.9786 18.9994C29.1184 20.3366 29.8341 21.4036 30.9708 21.9696C31.4341 22.2002 32.2724 22.2178 44.451 22.2519C53.1411 22.2761 57.6124 22.2409 57.967 22.1455C59.322 21.7805 60.4255 20.3206 60.4255 18.893V18.1526L62.6506 18.1986C64.8048 18.2431 64.8967 18.2569 65.5319 18.6303C66.2776 19.0686 66.9339 19.8939 67.1372 20.6488C67.2286 20.9881 67.2632 29.9998 67.2395 47.2264C67.2053 71.9907 67.1912 73.3177 66.9569 73.8382C66.6149 74.5981 65.9576 75.251 65.1496 75.6337L64.4649 75.9578L44.6786 75.9532C28.5044 75.9493 24.7984 75.9151 24.3784 75.7652C23.6211 75.4949 22.962 74.9395 22.5331 74.2101L22.1536 73.5643V47.2737C22.1536 25.3565 22.1848 20.8947 22.3413 20.4518C22.6039 19.7082 23.3996 18.8753 24.2075 18.4983C24.826 18.2097 25.0854 18.1787 26.8924 18.1775L28.8926 18.1761L28.9786 18.9994ZM37.0789 29.3826C36.853 29.5297 35.6213 30.7039 34.3418 31.992C33.0624 33.2799 31.9506 34.3339 31.8714 34.3339C31.7921 34.3339 31.4525 34.0496 31.1167 33.7021C30.117 32.6674 29.4411 32.486 28.4225 32.9789C27.4445 33.4524 27.0383 34.5816 27.4777 35.6049C27.5818 35.8472 28.3981 36.7638 29.292 37.6418C30.6198 38.9462 31.0135 39.2562 31.4437 39.3369C32.5134 39.5375 32.7296 39.3775 36.4866 35.6049C39.524 32.5547 40.0151 32.0039 40.0974 31.5551C40.2253 30.8574 39.8575 29.911 39.306 29.5183C38.7125 29.0957 37.622 29.0292 37.0789 29.3826ZM44.3694 33.5412C43.8274 33.8572 43.3092 34.713 43.3092 35.2924C43.3092 35.8913 43.8285 36.7322 44.395 37.0506L44.9328 37.3529L52.8062 37.3154C60.5146 37.2787 60.6874 37.272 61.0576 36.9955C61.7363 36.4886 61.9844 36.0328 61.9844 35.2924C61.9844 34.552 61.7363 34.0962 61.0576 33.5892C60.6872 33.3126 60.5186 33.3062 52.7817 33.274L44.8839 33.241L44.3694 33.5412ZM37.5728 43.9231C37.2164 44.0045 36.5085 44.6284 34.5356 46.5992L31.963 49.1693L31.1306 48.3986C30.2464 47.5801 29.7187 47.3781 28.877 47.536C27.5793 47.7794 26.9193 49.2332 27.5483 50.4628C27.6913 50.7422 28.4829 51.6284 29.3076 52.432C30.9787 54.0604 31.447 54.3011 32.4277 54.0364C32.8755 53.9157 33.5671 53.2966 36.358 50.519C38.2208 48.6651 39.8453 46.9368 39.9679 46.6784C40.6606 45.2187 39.2092 43.549 37.5728 43.9231ZM44.3694 47.2342C43.8274 47.5502 43.3092 48.406 43.3092 48.9854C43.3092 49.5843 43.8285 50.4252 44.395 50.7435L44.9328 51.0459L52.8062 51.0084C60.5146 50.9717 60.6874 50.965 61.0576 50.6885C61.7363 50.1816 61.9844 49.7257 61.9844 48.9854C61.9844 48.245 61.7363 47.7892 61.0576 47.2822C60.6872 47.0056 60.5186 46.9992 52.7817 46.967L44.8839 46.934L44.3694 47.2342ZM37.5728 57.6161C37.2164 57.6975 36.5085 58.3214 34.5356 60.2922L31.963 62.8623L31.1306 62.0916C30.2464 61.273 29.7187 61.0711 28.877 61.229C27.5793 61.4724 26.9193 62.9262 27.5483 64.1558C27.6913 64.4352 28.4829 65.3214 29.3076 66.125C30.9787 67.7534 31.447 67.9941 32.4277 67.7294C32.8755 67.6087 33.5671 66.9896 36.358 64.212C38.2208 62.3581 39.8453 60.6298 39.9679 60.3714C40.6606 58.9117 39.2092 57.242 37.5728 57.6161ZM44.3694 60.9289C43.8271 61.2432 43.3092 62.0979 43.3092 62.6784C43.3092 63.2743 43.8285 64.1182 44.3891 64.4333C44.9189 64.7309 44.9568 64.7323 52.6869 64.7323C61.2691 64.7323 61.0577 64.7529 61.6948 63.8597C62.121 63.2621 62.121 62.0946 61.6948 61.4971C61.0573 60.6033 61.2721 60.6241 52.6683 60.6276C44.9231 60.6307 44.8813 60.6322 44.3694 60.9289Z" fill="#00BCB6"/>
</svg>
