<svg width="90" height="90" viewBox="0 0 90 90" fill="none" xmlns="http://www.w3.org/2000/svg">
<path fill-rule="evenodd" clip-rule="evenodd" d="M21.3736 16.1091C18.717 16.4728 15.7807 17.7312 13.7255 19.3867C6.5675 25.1526 6.04307 35.7371 12.5929 42.2472C14.135 43.7799 16.7425 45.4206 17.6362 45.4206C18.9359 45.4206 19.7559 44.1754 19.2243 43.0087C19.0611 42.6505 18.5297 42.2655 17.002 41.3989C15.3824 40.4802 13.3625 38.1749 12.489 36.2486C11.4587 33.9763 11.1305 30.9244 11.674 28.6716C12.9853 23.2363 17.7122 19.4676 23.2284 19.4596C25.4106 19.4563 26.7069 19.7632 28.7002 20.7544C30.9416 21.8693 32.6765 23.6041 33.9873 26.0421C34.4927 26.9819 35.0189 27.3874 35.7327 27.3874C36.6411 27.3874 37.4276 26.6164 37.4276 25.7256C37.4276 25.2173 36.3903 23.2325 35.5307 22.0958C34.0013 20.0734 31.5939 18.1785 29.3868 17.2597C26.8856 16.2184 23.805 15.7761 21.3736 16.1091ZM59.5241 21.3822C57.6426 21.6985 55.6785 23.2039 54.8573 24.9588C54.6095 25.4882 54.3738 25.9213 54.3333 25.9213C54.2928 25.9213 54.082 25.7948 53.8647 25.64C52.2601 24.4974 49.1606 24.4534 47.237 25.546C46.0524 26.2189 44.6353 27.8812 44.386 28.8902C44.3313 29.1119 44.2555 29.2934 44.2176 29.2934C44.1797 29.2934 43.6527 29.0547 43.0463 28.7631C39.8701 27.2354 35.9197 28.5867 34.4238 31.7125C34.1921 32.1963 33.9804 32.6209 33.9532 32.6559C33.9259 32.6909 32.3679 31.1929 30.4909 29.3268C26.7233 25.5812 26.1621 25.1858 24.2325 24.917C22.0875 24.6182 20.1979 25.273 18.6273 26.8593C16.7281 28.7773 16.2877 31.7094 17.5129 34.2782C17.9297 35.152 18.9608 36.2265 29.9296 47.2166C36.5087 53.8085 41.8498 59.2021 41.7986 59.2021C41.5654 59.2021 28.4671 61.2784 27.7512 61.4288C25.8998 61.8179 24.1984 62.9009 23.1284 64.3713C21.8888 66.0749 21.362 68.327 21.7998 70.0519C22.2322 71.7558 23.518 73.1536 25.1855 73.7329C25.9986 74.0152 60.2363 74.0368 61.8496 73.7559C64.6995 73.2596 67.7806 71.963 69.9737 70.3369C71.3056 69.3493 76.0137 64.802 77.9785 62.6056C79.8624 60.4994 81.0795 58.5067 81.9203 56.1514C84.192 49.7877 82.8215 42.6312 78.3507 37.5118C76.8485 35.7918 66.7357 24.6948 65.679 23.6069C64.4382 22.3296 63.448 21.7312 62.1034 21.4463C61.0116 21.2149 60.582 21.2042 59.5241 21.3822ZM62.2286 25.0921C62.8186 25.4394 75.2154 38.9778 76.5269 40.7068C79.3165 44.3849 80.2869 49.466 79.0533 53.9359C78.6617 55.355 77.6335 57.516 76.7676 58.7405C75.9891 59.8411 70.1261 65.8389 68.6286 67.0664C66.9051 68.4792 64.7464 69.5624 62.5476 70.1177C60.6737 70.591 58.0791 70.6531 42.0458 70.6084C27.5788 70.5682 26.1822 70.5435 25.8684 70.3214C25.2512 69.8842 25.0603 69.4676 25.083 68.6072C25.1222 67.1145 26.1073 65.6813 27.525 65.0542C27.8887 64.8934 31.5829 64.2468 37.0299 63.3908C41.9306 62.6206 46.1278 61.8934 46.3572 61.7748C46.9242 61.4816 47.2864 60.5714 47.0977 59.9139C46.992 59.545 43.7544 56.2184 33.779 46.2292C19.6432 32.0739 20.2158 32.7084 20.2383 31.2251C20.2516 30.3471 20.8124 29.3193 21.5679 28.7883C22.3558 28.2347 23.7543 28.0925 24.5395 28.4864C24.8141 28.6241 29.0304 32.7167 33.9089 37.5812C43.2905 46.9357 43.2001 46.857 44.245 46.5719C45.0688 46.3473 45.6274 45.4014 45.4229 44.5776C45.3585 44.3185 43.9674 42.812 41.5309 40.3625C37.4988 36.3092 37.1408 35.8369 37.1408 34.5714C37.1408 32.4377 39.4045 30.9057 41.3537 31.7201C41.7077 31.868 43.2589 33.2998 45.7873 35.8123C49.1581 39.1619 49.7514 39.691 50.239 39.7825C51.1744 39.958 52.1566 39.3072 52.2403 38.4566C52.3236 37.61 52.2076 37.4394 50.0611 35.2499C47.6219 32.7616 47.3106 32.2444 47.4247 30.869C47.5499 29.3598 48.7119 28.2474 50.2681 28.147C51.5663 28.0633 52.1031 28.3986 54.5965 30.8518C56.7012 32.9229 56.7487 32.9587 57.386 32.9587C58.1354 32.9587 58.5909 32.6884 58.9224 32.0475C59.2546 31.4052 59.0992 30.7236 58.4169 29.8291C57.7417 28.944 57.63 28.6355 57.6375 27.6768C57.6554 25.3723 60.2365 23.9192 62.2286 25.0921Z" fill="#00BCB6"/>
</svg>
