<svg width="90" height="90" viewBox="0 0 90 90" fill="none" xmlns="http://www.w3.org/2000/svg">
<path fill-rule="evenodd" clip-rule="evenodd" d="M14.2403 20.1312C12.7756 20.4894 11.3455 21.8154 10.9523 23.1798C10.8261 23.6178 9.41367 29.6819 7.81338 36.6556C4.6208 50.5701 4.66009 50.3178 5.44278 51.8496C5.93556 52.8141 6.67426 53.5321 7.5875 53.9339C8.66479 54.4081 13.1728 55.4007 14.251 55.4012C15.387 55.4018 16.3563 55.0153 17.2546 54.2038C17.5998 53.8918 17.9695 53.426 18.0761 53.1686C18.1828 52.9113 18.3307 52.7007 18.4047 52.7007C18.4788 52.7007 22.3844 56.5104 27.0838 61.1668C34.9165 68.9276 35.7154 69.674 36.6747 70.1259C38.7917 71.1233 41.3059 70.6547 42.883 68.9686C43.2709 68.5536 43.7078 67.9641 43.8537 67.6582C43.9994 67.3523 44.1603 67.1022 44.2111 67.1022C44.2619 67.1022 44.8237 67.626 45.4596 68.2662C46.9692 69.7859 48.0223 70.2881 49.6961 70.2862C51.306 70.2845 52.4825 69.8166 53.5321 68.7609C53.9682 68.3221 54.4511 67.6948 54.6052 67.3671C54.7592 67.0391 54.9337 66.7926 54.9929 66.8192C55.0521 66.8456 55.5223 67.0787 56.0378 67.337C56.8821 67.7601 57.1226 67.8066 58.4622 67.8066C59.8565 67.8066 60.0106 67.7734 60.9305 67.2745C62.6539 66.34 63.6508 64.862 63.8947 62.8799L64.0193 61.8668L64.6699 61.7558C66.1534 61.5025 67.7241 60.2822 68.4384 58.8279C68.8169 58.057 68.872 57.7616 68.872 56.5027V55.0607L70.4923 54.3464L72.1125 53.632L72.7429 54.2015C73.6436 55.0153 74.6121 55.4018 75.749 55.4012C76.8272 55.4007 81.3352 54.4081 82.4125 53.9339C83.3257 53.5321 84.0644 52.8141 84.5572 51.8496C85.3399 50.3178 85.3792 50.5701 82.1866 36.6556C80.5863 29.6819 79.1739 23.6178 79.0477 23.1798C78.76 22.1815 77.7784 21.0396 76.7676 20.5274C75.4693 19.8695 74.7019 19.8812 71.5331 20.6068C69.9834 20.9616 68.4176 21.3951 68.0536 21.5698C67.6897 21.7445 67.0729 22.2421 66.6831 22.6756C65.8068 23.6503 65.4535 24.7367 65.5305 26.2202L65.5847 27.2632L64.3324 27.7685C63.3398 28.1691 62.853 28.2741 61.9843 28.2759C60.6394 28.2782 60.3706 28.16 56.091 25.6845C50.4137 22.4002 48.743 21.7597 46.2523 21.9121C44.1307 22.0419 42.211 22.8828 40.4938 24.4341L39.8714 24.9965L32.1597 24.9558L24.448 24.9153L24.2364 24.189C23.9737 23.2884 22.8507 22.0037 21.9464 21.5698C21.1715 21.1978 15.9266 19.977 15.2043 20.0003C14.9324 20.0093 14.4986 20.0681 14.2403 20.1312ZM18.0693 23.7298C20.2636 24.2445 20.6993 24.3961 21.0043 24.7509C21.2016 24.9801 21.3628 25.3179 21.3628 25.5015C21.3628 25.9264 15.619 51.09 15.4116 51.574C15.3266 51.7722 15.0221 52.0325 14.7349 52.1525C14.256 52.3526 13.9965 52.3219 11.6273 51.7861C10.2054 51.4646 8.86187 51.0832 8.64147 50.9389C8.42106 50.7944 8.19487 50.4671 8.13867 50.2112C8.02033 49.6722 13.7354 24.3749 14.1118 23.7719C14.3379 23.4096 14.8209 23.1391 15.2578 23.1301C15.387 23.1275 16.6521 23.3974 18.0693 23.7298ZM75.7315 23.5653C76.1416 23.9754 81.9994 49.3845 81.8621 50.1582C81.8072 50.4683 81.6124 50.7725 81.3648 50.9347C81.141 51.0814 79.7946 51.4646 78.3727 51.7861C76.0035 52.3219 75.744 52.3526 75.2652 52.1525C74.9779 52.0325 74.6734 51.7722 74.5884 51.574C74.381 51.09 68.6372 25.9264 68.6372 25.5015C68.6372 25.3179 68.7989 24.9795 68.9966 24.7497C69.3003 24.3967 69.7436 24.2386 71.8534 23.7314C74.4948 23.0963 75.231 23.0649 75.7315 23.5653ZM48.2954 25.2453C49.4477 25.5875 51.5015 26.6418 55.4098 28.8971C59.1424 31.0513 60.122 31.4263 62.0167 31.4268C63.427 31.4273 64.1727 31.269 65.4758 30.6928C65.9496 30.4832 66.371 30.3454 66.4122 30.3866C66.4532 30.4278 67.4976 34.8841 68.7328 40.2896C69.9681 45.6952 71.0073 50.2356 71.0424 50.3796C71.0917 50.5822 70.6777 50.8343 69.2064 51.4979L67.3066 52.3546L59.8711 44.957C55.7815 40.8884 52.1186 37.3527 51.7311 37.0999C50.2667 36.1445 49.0465 35.7967 47.1557 35.7956C45.261 35.7944 44.1567 36.1899 41.8149 37.7087C36.7995 40.9615 34.3155 41.3594 31.6176 39.3424C31.3185 39.1187 31.3682 39.0452 32.8741 37.4912C33.7366 36.6011 35.9269 34.1466 37.7417 32.0367C42.0721 27.0013 43.2618 25.902 45.0492 25.2843C46.0649 24.9333 47.199 24.9197 48.2954 25.2453ZM36.6846 28.3983C35.2519 30.2344 31.4953 34.4472 29.7881 36.132C27.4632 38.4267 27.2361 38.8058 27.6761 39.6568C28.1301 40.5349 30.0336 42.1507 31.4096 42.826C33.5862 43.8944 35.6916 43.9673 38.3864 43.0677C39.8084 42.5929 41.0185 41.9535 43.2787 40.4817C45.4367 39.0768 45.9262 38.8811 47.2931 38.8767C49.286 38.8705 49.1479 38.7581 57.9037 47.52L65.7198 55.3415L65.7783 56.2518C65.8245 56.9725 65.769 57.2702 65.5108 57.6814C65.0634 58.3945 63.9807 58.8646 63.1088 58.7243C62.5011 58.6266 62.0261 58.1929 56.5055 52.6937C53.2339 49.4347 50.3774 46.7013 50.1578 46.6194C49.172 46.2522 48.1308 46.9907 48.1308 48.0574C48.1308 48.6855 48.2076 48.7707 54.2924 54.8844C60.7837 61.4067 60.9631 61.6259 60.7471 62.7685C60.6027 63.5325 60.1225 64.2039 59.5137 64.4927C58.88 64.7934 57.9699 64.8326 57.4735 64.5805C57.2855 64.485 54.2767 61.5617 50.7875 58.0842C46.0399 53.3527 44.3458 51.757 44.0564 51.7435C43.3072 51.7086 43.0392 51.7925 42.6128 52.1957C42.283 52.5077 42.1823 52.7489 42.1823 53.2283C42.1823 53.8394 42.2922 53.9643 46.9469 58.6418C49.5675 61.2752 51.7864 63.6267 51.8778 63.8673C52.5785 65.7103 51.1374 67.5012 49.2276 67.1607C48.7663 67.0786 47.8407 66.2295 43.4346 61.8474C40.5504 58.9788 37.9868 56.5553 37.7376 56.4619C37.1684 56.248 36.3363 56.4933 35.9996 56.9741C35.8701 57.1588 35.7643 57.5946 35.7643 57.9424C35.7643 58.5491 35.8599 58.6701 38.1166 60.921C39.4102 62.2113 40.6489 63.5258 40.869 63.8421C41.8213 65.2108 41.0285 67.2065 39.4119 67.5097C38.1746 67.7418 38.2737 67.8268 28.487 58.1381L19.2674 49.0108L21.2703 40.2504C22.3719 35.4321 23.4493 30.7326 23.6647 29.8071L24.0564 28.1243H30.4774C36.5697 28.1243 36.8874 28.1384 36.6846 28.3983Z" fill="#00BCB6"/>
</svg>
