<svg width="90" height="90" viewBox="0 0 90 90" fill="none" xmlns="http://www.w3.org/2000/svg">
<path fill-rule="evenodd" clip-rule="evenodd" d="M39.6778 18.1309C37.199 18.6177 35.2548 20.6998 34.8128 23.3412C34.7315 23.8264 34.691 23.8567 33.4669 24.3433C24.8307 27.7769 17.9916 35.3063 15.3145 44.3275C14.3652 47.5267 14.076 50.1573 14.0735 55.6154L14.0719 59.3787L13.1814 59.839C10.9938 60.9703 9.66766 63.6291 10.0725 66.0722C10.5069 68.6942 12.4636 70.7289 15.0159 71.2129C16.0345 71.4062 73.9655 71.4062 74.9841 71.2129C77.5364 70.7289 79.4931 68.6942 79.9275 66.0722C80.3323 63.6291 79.0062 60.9703 76.8186 59.839L75.9281 59.3787L75.9265 55.6154C75.9247 51.451 75.793 49.452 75.3722 47.1994C74.0211 39.9663 69.8935 33.2506 63.9531 28.6205C61.8394 26.973 58.9319 25.297 56.5331 24.3433C55.309 23.8567 55.2685 23.8264 55.1872 23.3412C54.7356 20.6421 52.8024 18.6131 50.2151 18.1225C49.3286 17.9544 40.541 17.9613 39.6778 18.1309ZM50.0668 22.3637C50.4146 22.541 50.7052 22.8317 50.8826 23.1794C51.1518 23.7069 51.1581 23.9657 51.1581 34.4043C51.1581 44.8429 51.1643 45.1017 51.4335 45.6292C51.7433 46.2364 52.5317 46.7204 53.2107 46.7204C53.8898 46.7204 54.6781 46.2364 54.988 45.6292C55.2552 45.1054 55.2634 44.8378 55.2634 36.6753V28.2613L56.0503 28.6059C56.4831 28.7954 57.4067 29.2693 58.103 29.6589L59.3687 30.3674L59.3688 35.6756C59.3688 40.7255 59.3822 41.0101 59.6443 41.5238C59.9541 42.131 60.7425 42.6151 61.4215 42.6151C62.1005 42.6151 62.8889 42.131 63.1987 41.5238C63.4545 41.0224 63.4742 40.7219 63.4742 37.3228V33.6619L64.1744 34.3411C65.7553 35.8742 67.8609 38.8151 69.0068 41.0906C69.7257 42.5182 70.6735 45.1155 71.0739 46.7555C71.6347 49.0519 71.8218 51.1908 71.8218 55.3067V59.0365H45H18.1782V55.3067C18.1782 51.1908 18.3653 49.0519 18.9261 46.7555C19.3265 45.1155 20.2743 42.5182 20.9932 41.0906C22.1391 38.8151 24.2447 35.8742 25.8256 34.3411L26.5258 33.6619V37.3228C26.5258 40.7219 26.5455 41.0224 26.8013 41.5238C27.1111 42.131 27.8995 42.6151 28.5785 42.6151C29.2575 42.6151 30.0459 42.131 30.3557 41.5238C30.6178 41.0101 30.6312 40.7255 30.6312 35.6756L30.6313 30.3674L31.897 29.6589C32.5933 29.2693 33.517 28.7954 33.9497 28.6059L34.7366 28.2613V36.6753C34.7366 44.8378 34.7448 45.1054 35.012 45.6292C35.3219 46.2364 36.1102 46.7204 36.7893 46.7204C37.4683 46.7204 38.2567 46.2364 38.5665 45.6292C38.8356 45.1017 38.8419 44.8429 38.8419 34.4043C38.8419 23.97 38.8484 23.7068 39.1171 23.1799C39.2853 22.8503 39.5913 22.5355 39.904 22.3704C40.383 22.1175 40.7062 22.1 44.9713 22.0942C49.2736 22.0885 49.5568 22.1035 50.0668 22.3637ZM74.8359 63.4174C75.4431 63.7272 75.9271 64.5156 75.9271 65.1946C75.9271 65.8736 75.4431 66.662 74.8359 66.9718C74.2996 67.2454 74.0911 67.2473 45 67.2473C15.9089 67.2473 15.7004 67.2454 15.1641 66.9718C14.5569 66.662 14.0729 65.8736 14.0729 65.1946C14.0729 64.5365 14.5572 63.7291 15.1349 63.4241C15.6396 63.1577 16.0452 63.154 44.9713 63.1479C74.0972 63.1419 74.2995 63.1438 74.8359 63.4174Z" fill="#00BCB6"/>
</svg>
