<svg width="20" height="20" viewBox="0 0 20 20" fill="none" xmlns="http://www.w3.org/2000/svg">
<g clip-path="url(#clip0_1142_5776)">
<path d="M1.37492 8.61863C6.74362 6.23047 10.3235 4.65601 12.1149 3.89524C17.2292 1.72331 18.2919 1.346 18.9846 1.33347C19.1369 1.33085 19.4776 1.36939 19.6982 1.55216C19.8846 1.70654 19.9358 1.91508 19.9603 2.06139C19.9849 2.20777 20.0154 2.54116 19.9911 2.80162C19.7139 5.77485 18.5148 12.9902 17.9046 16.3203C17.6465 17.7293 17.1382 18.2018 16.6461 18.248C15.5766 18.3485 14.7645 17.5264 13.7287 16.8331C12.1078 15.7483 11.1922 15.0729 9.61878 14.0144C7.80054 12.791 8.97924 12.1186 10.0155 11.0197C10.2866 10.7322 14.9987 6.35601 15.0899 5.95908C15.1013 5.90939 15.1119 5.72432 15.0042 5.62662C14.8966 5.52893 14.7376 5.56231 14.6229 5.58885C14.4604 5.62655 11.871 7.37401 6.85485 10.8312C6.11985 11.3466 5.45416 11.5976 4.85769 11.5844C4.20016 11.5699 2.93531 11.2049 1.995 10.8928C0.841692 10.5099 -0.0749707 10.3076 0.00484473 9.65755C0.0464217 9.31894 0.503099 8.97263 1.37492 8.61863Z" fill="white"/>
</g>
<defs>
<clipPath id="clip0_1142_5776">
<rect width="20" height="20" fill="white"/>
</clipPath>
</defs>
</svg>
