<svg width="18" height="16" viewBox="0 0 18 16" fill="none" xmlns="http://www.w3.org/2000/svg">
<path fill-rule="evenodd" clip-rule="evenodd" d="M0.252765 8.06597L4.74401 9.50129L13.6227 3.78529C14.9631 2.9241 15.438 2.98962 14.053 4.25363L7.11334 10.6294L9.63591 12.5632L13.776 15.736C14.4092 16.149 15.072 15.8719 15.2747 15.1417C16.1206 10.992 16.9466 6.84222 17.8072 2.69753C18.4057 -0.173098 17.6243 0.280173 15.2698 1.20179L8.79507 3.74L0.514905 6.98827C-0.0737244 7.17966 -0.152841 7.95517 0.252765 8.06597Z" fill="#2FA6D9"/>
<path opacity="0.5" fill-rule="evenodd" clip-rule="evenodd" d="M4.74365 9.50208L6.28688 14.5685C6.36604 14.8656 6.51441 14.9965 6.64305 14.9713C6.75188 14.9512 6.8409 14.8152 6.8409 14.5735C6.9398 13.264 7.00908 11.9396 7.10798 10.6302L14.0526 4.25951C15.4326 2.99543 14.9578 2.92496 13.6223 3.79117L4.74365 9.50208Z" fill="#2FA6D9"/>
<path fill-rule="evenodd" clip-rule="evenodd" d="M7.11197 10.6297C7.01301 11.9391 6.94379 13.2636 6.84483 14.573C6.84483 14.8147 6.7558 14.9507 6.64697 14.9709C7.0971 14.9709 7.24547 14.9104 7.55216 14.6083L9.6346 12.5586L7.11197 10.6297Z" fill="#2FA6D9"/>
</svg>
