<svg width="18" height="18" viewBox="0 0 18 18" fill="none" xmlns="http://www.w3.org/2000/svg">
<path d="M15.1687 7.55509C15.1911 5.01796 13.0284 2.69319 10.3516 2.36907C10.2957 2.36348 10.2398 2.3523 10.1783 2.34112C10.0442 2.31877 9.91007 2.29642 9.77036 2.29642C9.2227 2.29642 9.07741 2.68202 9.03829 2.91114C8.99917 3.13468 9.03829 3.32468 9.14447 3.46998C9.32888 3.71587 9.64742 3.76057 9.90448 3.7941C9.97713 3.80528 10.0498 3.81646 10.1113 3.82763C12.5143 4.36412 13.3246 5.20797 13.7213 7.59421C13.7325 7.65009 13.7381 7.72274 13.7381 7.80098C13.7549 8.08598 13.794 8.67835 14.4311 8.67835C14.4814 8.67835 14.5428 8.67277 14.5987 8.66718C15.1911 8.57776 15.1743 8.03569 15.1631 7.77304C15.1631 7.70039 15.1576 7.62774 15.1631 7.58303C15.1687 7.57744 15.1687 7.56627 15.1687 7.55509Z" fill="#8852C1"/>
<path d="M9.62021 1.44181C9.69286 1.44739 9.75992 1.45298 9.81581 1.45857C13.7612 2.06771 15.5774 3.93982 16.086 7.91876C16.0972 7.98582 16.0972 8.06964 16.0972 8.15906C16.1027 8.472 16.1139 9.11467 16.8069 9.13144H16.8292C17.0472 9.13144 17.2204 9.06438 17.3434 8.93584C17.5613 8.71231 17.5445 8.37141 17.5334 8.10317C17.5278 8.03611 17.5278 7.97464 17.5278 7.91876C17.5781 3.84482 14.0518 0.156475 9.98346 0.0167652C9.96669 0.0167652 9.94993 0.0167652 9.93316 0.0167652C9.92758 0.0167652 9.91081 0.0167652 9.88287 0.0167652C9.84375 0.0167652 9.79345 0.0111768 9.73757 0.0111768C9.6761 0.00558839 9.60345 0 9.52521 0C8.87696 0 8.75401 0.458248 8.73725 0.737668C8.70931 1.37475 9.32403 1.41945 9.62021 1.44181Z" fill="#8852C1"/>
<path d="M15.8897 13.0653C15.8059 13.0038 15.7165 12.9368 15.6382 12.8697C15.2079 12.5232 14.7497 12.2047 14.3026 11.8918C14.2132 11.8303 14.1182 11.7632 14.0288 11.7018C13.4588 11.305 12.9502 11.1094 12.464 11.1094C11.8158 11.1094 11.2458 11.467 10.7764 12.1768C10.5696 12.4897 10.3181 12.6462 10.0052 12.6462C9.82074 12.6462 9.61397 12.5959 9.38484 12.4897C7.55185 11.657 6.23858 10.3829 5.48974 8.6952C5.12649 7.8793 5.24385 7.3484 5.88093 6.9181C6.24417 6.67221 6.91478 6.21396 6.87007 5.33658C6.81419 4.34185 4.62354 1.35206 3.69587 1.01117C3.30468 0.865874 2.89114 0.865874 2.47201 1.00558C1.41022 1.36324 0.644608 1.98914 0.264598 2.82181C-0.104236 3.62095 -0.0874704 4.56539 0.314893 5.54335C1.4661 8.37667 3.09232 10.8411 5.13208 12.8809C7.13272 14.876 9.59161 16.5078 12.4417 17.7372C12.6988 17.849 12.967 17.9105 13.1626 17.9496C13.2297 17.9663 13.2855 17.9775 13.3302 17.9887C13.3526 17.9943 13.375 17.9999 13.4029 17.9999H13.4252C14.7665 17.9999 16.3759 16.776 16.8677 15.3789C17.3204 14.1551 16.5268 13.5515 15.8897 13.0653Z" fill="#8852C1"/>
<path d="M10.2119 4.6773C9.98279 4.68288 9.50219 4.69406 9.33454 5.18025C9.2563 5.40937 9.26748 5.60497 9.36248 5.76703C9.50219 6.00733 9.77602 6.07998 10.0275 6.1191C10.9272 6.2644 11.3911 6.76176 11.4805 7.68385C11.5252 8.11415 11.8158 8.41593 12.1846 8.41593C12.2126 8.41593 12.2405 8.41593 12.2684 8.41034C12.7155 8.35445 12.9335 8.03033 12.9111 7.43237C12.9167 6.81206 12.5926 6.10792 12.0393 5.5435C11.4861 4.97907 10.821 4.66053 10.2119 4.6773Z" fill="#8852C1"/>
</svg>
