<svg width="24" height="24" viewBox="0 0 24 24" fill="none" xmlns="http://www.w3.org/2000/svg">
<path d="M17.8112 6.51721L17.5612 7.05169C17.5612 7.05169 16.3753 9.57025 14.9315 11.1569C14.4673 11.6702 14.2316 11.8248 13.9753 11.8248C13.7692 11.8248 13.6739 11.653 13.6739 11.1905V6.40009H9.18444V6.76705C9.18444 7.30153 10.0048 7.42249 10.0048 8.87041V11.8577C10.0048 12.4594 9.97188 12.6922 9.68772 12.6922C8.93292 12.6922 7.14084 10.1057 6.13452 7.16881L5.88444 6.40009H2.95164C2.63292 6.40009 2.39844 6.61705 2.39844 6.93457C2.39844 7.51897 3.0858 10.2218 5.78292 13.8446C7.59228 16.2814 9.97188 17.5999 12.1158 17.5999C13.4236 17.5999 13.7408 17.383 13.7408 16.8329V14.9633C13.7408 14.4955 13.9254 14.2954 14.1942 14.2954C14.4956 14.2954 15.027 14.3914 16.2707 15.6142C16.2721 15.6142 18.2644 17.5999 18.2644 17.5999H21.1129C21.3644 17.5999 21.5987 17.4838 21.5987 17.0664C21.5987 16.5146 20.8784 15.5304 19.7723 14.3623C19.3206 13.7616 18.5831 13.11 18.3486 12.809C18.0143 12.4591 18.1141 12.2592 18.3486 11.892C18.3486 11.892 20.8784 8.33593 21.13 7.16857C21.2144 6.75145 21.0299 6.51697 20.594 6.51697L17.8112 6.51721Z" fill="white"/>
</svg>
