<svg width="60" height="60" viewBox="0 0 60 60" fill="none" xmlns="http://www.w3.org/2000/svg">
<path fill-rule="evenodd" clip-rule="evenodd" d="M18.5453 13.0605C18.1767 13.1501 17.5523 13.3993 17.1576 13.6141C15.6878 14.4141 14.7741 15.4782 12.9718 18.4882C11.4619 21.01 10.6756 21.6736 9.53302 21.3901C8.99424 21.2565 7.9203 20.0672 7.164 18.7665C5.92306 16.6327 5.41001 15.9018 4.51741 14.9966C3.38986 13.8532 2.88954 13.5461 2.15401 13.5454C0.761362 13.5442 -0.22037 14.7656 0.043391 16.1715C0.110135 16.5272 0.379258 16.8991 1.06855 17.5884C2.03661 18.5564 2.4419 19.122 3.54412 21.0427C4.33044 22.413 5.28001 23.6186 6.11927 24.3121C8.35173 26.1569 11.3487 26.2 13.689 24.421C14.6878 23.6618 15.5365 22.5639 16.9166 20.246C18.4804 17.6196 19.2789 16.9318 20.4287 17.2203C21.0622 17.3793 21.8967 18.3334 22.9586 20.1133C24.7538 23.122 25.7778 24.2922 27.2735 25.0436C29.5825 26.204 32.1322 25.8763 34.023 24.1764C34.9402 23.3516 35.6632 22.3827 36.8513 20.3856C39.2835 16.2979 40.5704 16.1392 42.727 19.6613C45.2977 23.8601 46.4027 24.9707 48.5715 25.5357C50.0329 25.9163 51.5939 25.7142 52.9687 24.966C54.2969 24.2434 55.8536 22.344 57.1587 19.8534C57.4946 19.2124 58.0511 18.4724 58.7209 17.776C59.3696 17.1016 59.8177 16.5101 59.9109 16.2047C60.3177 14.874 59.2801 13.5449 57.8345 13.5449C57.3343 13.5449 57.1063 13.6439 56.4224 14.1579C55.3163 14.9894 54.3921 16.1396 53.1391 18.244C52.0161 20.13 51.0764 21.2399 50.4757 21.3897C49.4047 21.6568 48.5617 21.0096 47.3034 18.9545C45.8113 16.5175 45.0819 15.491 44.3012 14.7295C42.0225 12.5067 38.8197 12.2778 36.3175 14.1588C35.3695 14.8714 34.3887 16.1287 33.0849 18.3027C31.4879 20.9657 30.8778 21.5508 29.8435 21.4121C28.8605 21.2802 28.3466 20.6864 26.2419 17.249C25.3533 15.7978 23.9802 14.2947 23.0165 13.718C21.7121 12.9377 20.0534 12.6937 18.5453 13.0605ZM18.5453 34.5045C18.1767 34.5941 17.5523 34.8433 17.1576 35.0581C15.6878 35.8581 14.7741 36.9221 12.9718 39.9322C11.4619 42.454 10.6756 43.1176 9.53302 42.8341C8.99357 42.7003 7.91949 41.5101 7.1652 40.2104C5.61976 37.5476 4.83786 36.5427 3.56985 35.5895C2.90214 35.0876 2.67269 34.9888 2.17425 34.9888C0.760692 34.9888 -0.222112 36.2003 0.043391 37.6154C0.110135 37.9711 0.379258 38.3431 1.06855 39.0324C2.03661 40.0004 2.4419 40.566 3.54412 42.4867C4.33044 43.857 5.28001 45.0625 6.11927 45.7561C8.35173 47.6008 11.3487 47.644 13.689 45.8649C14.6878 45.1058 15.5365 44.0079 16.9166 41.6899C18.4804 39.0636 19.2789 38.3758 20.4287 38.6643C21.0622 38.8233 21.8967 39.7774 22.9586 41.5572C24.7538 44.566 25.7778 45.7361 27.2735 46.4876C29.5825 47.648 32.1322 47.3203 34.023 45.6203C34.9402 44.7956 35.6632 43.8267 36.8513 41.8296C39.2835 37.7418 40.5704 37.5831 42.727 41.1053C45.2977 45.304 46.4027 46.4147 48.5715 46.9796C50.0329 47.3603 51.5939 47.1581 52.9687 46.41C54.2945 45.6887 55.844 43.7998 57.1587 41.3018C57.4595 40.7303 58.0834 39.8787 58.6315 39.2914C59.7726 38.069 59.8919 37.861 59.8919 37.0949C59.8919 35.9596 58.9767 35.0558 57.827 35.0558C57.1984 35.0558 57.0387 35.12 56.3531 35.649C55.2825 36.4749 54.3674 37.625 53.1391 39.688C52.0161 41.574 51.0764 42.6839 50.4757 42.8337C49.4047 43.1008 48.5617 42.4536 47.3034 40.3985C45.8113 37.9615 45.0819 36.935 44.3012 36.1735C42.0225 33.9507 38.8197 33.7218 36.3175 35.6028C35.3695 36.3154 34.3887 37.5727 33.0849 39.7467C31.4879 42.4096 30.8778 42.9948 29.8435 42.8561C28.8605 42.7242 28.3466 42.1303 26.2419 38.693C25.3533 37.2418 23.9802 35.7387 23.0165 35.162C21.7121 34.3817 20.0534 34.1376 18.5453 34.5045Z" fill="#00BCB6"/>
</svg>
