<svg width="20" height="20" viewBox="0 0 20 20" fill="none" xmlns="http://www.w3.org/2000/svg">
<g clip-path="url(#clip0_1931_4526)">
<path fill-rule="evenodd" clip-rule="evenodd" d="M9.0625 0.0270703L8.90625 0.0416016L8.42176 0.118984L7.93727 0.196367L7.55934 0.292148L7.18141 0.387969L6.79383 0.52293L6.40625 0.657891L6.07422 0.799648L5.74219 0.941406L5.33203 1.15727L4.92188 1.37316L4.53707 1.62852L4.15227 1.88383L3.75582 2.19961L3.35938 2.51539L2.94598 2.9273L2.53262 3.33922L2.21832 3.73566L1.90398 4.13211L1.64805 4.51691L1.39211 4.90172L1.13777 5.39L0.883398 5.87828L0.705234 6.33465L0.527031 6.79105L0.388086 7.27215L0.249141 7.75328L0.146563 8.31969L0.0439453 8.88609L0.0423828 9.97984L0.0408203 11.0736L0.128672 11.5776L0.216523 12.0816L0.313438 12.464L0.410391 12.8464L0.570703 13.3077L0.731016 13.7689L0.974492 14.2767L1.21793 14.7845L1.4 15.0905L1.58203 15.3964V15.4301V15.4637L0.810547 17.1554L0.0390625 18.847V19.1429V19.4387L0.146836 19.6015L0.25457 19.7643L0.412852 19.8691L0.571094 19.9738L0.784492 19.9915L0.997852 20.0092L1.24109 19.9632L1.48438 19.9172L2.20703 19.7245L2.92969 19.5316L4.11801 19.1825L5.30633 18.8332L5.5759 18.969L5.84551 19.1048L6.26258 19.2756L6.67969 19.4464L7.13199 19.5834L7.5843 19.7205L8.08902 19.8188L8.59375 19.917L9.03695 19.9633L9.48012 20.0095L10.3065 19.9883L11.1328 19.9671L11.5039 19.9045L11.875 19.8418L12.168 19.779L12.4609 19.7161L12.9102 19.5812L13.3594 19.4464L13.7759 19.2758L14.1923 19.1053L14.5118 18.9446L14.8313 18.784L15.2379 18.5351L15.6445 18.2861L16.0058 18.0143L16.3672 17.7424L16.7304 17.4201L17.0936 17.0978L17.4277 16.7232L17.7619 16.3487L18.0341 15.9865L18.3063 15.6243L18.5552 15.2178L18.8041 14.8112L18.96 14.5011L19.1159 14.1911L19.2731 13.8134L19.4303 13.4357L19.5522 13.0554L19.6741 12.6752L19.7656 12.2845L19.8571 11.8939L19.9286 11.4642L20 11.0345V9.99937V8.96422L19.9286 8.53453L19.8571 8.10484L19.7656 7.71422L19.6741 7.32359L19.551 6.93957L19.4279 6.55559L19.2537 6.1398L19.0795 5.72406L18.8643 5.31738L18.649 4.9107L18.3939 4.52367L18.1387 4.13664L17.8211 3.73793L17.5035 3.33922L17.0916 2.92641L16.6797 2.51355L16.3073 2.21609L15.935 1.91859L15.487 1.62059L15.0391 1.32258L14.4531 1.03484L13.8672 0.74707L13.482 0.605352L13.0969 0.463633L12.6223 0.333594L12.1479 0.203516L11.777 0.141211L11.4062 0.0789063L11.0547 0.0394531L10.7031 0L9.96094 0.00625L9.21875 0.0125L9.0625 0.0270703ZM10.7812 1.79762L11.2109 1.83797L11.6909 1.93645L12.1709 2.03492L12.6089 2.18281L13.0469 2.3307L13.3686 2.47258L13.6904 2.61445L14.0132 2.79719L14.3359 2.97988L14.6121 3.16574L14.8883 3.35164L15.1891 3.5907L15.4899 3.82973L15.8602 4.20242L16.2305 4.57516L16.4794 4.89469L16.7284 5.21422L16.9475 5.55129L17.1668 5.8884L17.4028 6.35805L17.6389 6.82773L17.8287 7.40769L18.0186 7.98766L18.1007 8.41734L18.1829 8.84703L18.2223 9.25156L18.2617 9.65609V9.99937V10.3427L18.2223 10.7472L18.1829 11.1517L18.1007 11.5814L18.0186 12.0111L17.8297 12.588L17.6409 13.1649L17.4004 13.6427L17.1598 14.1205L16.9441 14.4525L16.7284 14.7845L16.4765 15.1078L16.2247 15.431L15.8379 15.8178L15.4512 16.2045L15.1279 16.4564L14.8047 16.7082L14.4696 16.9261L14.1345 17.144L13.6554 17.3839L13.1763 17.6237L12.6038 17.8111L12.0312 17.9984L11.6016 18.0805L11.1719 18.1627L10.7673 18.2021L10.3628 18.2416H10.0195H9.67625L9.27172 18.2021L8.86719 18.1627L8.4375 18.0805L8.00781 17.9984L7.42941 17.8091L6.85102 17.6198L6.25965 17.3225L5.66832 17.0251L5.49039 17.0071L5.3125 16.9891L3.90625 17.3775L2.5 17.7657L2.49531 17.7595L2.49066 17.7533L2.97844 16.6791L3.46617 15.6048L3.48594 15.4413L3.5057 15.2777L3.48062 15.1441L3.45559 15.0104L3.14266 14.5264L2.82973 14.0423L2.6377 13.6517L2.44566 13.2611L2.31289 12.9095L2.18012 12.558L2.07664 12.1869L1.97316 11.8158L1.89473 11.3526L1.81629 10.8895L1.7916 10.337L1.76691 9.78453L1.8132 9.29625L1.85953 8.80797L1.95332 8.34859L2.04707 7.88926L2.22457 7.35805L2.40207 6.82687L2.62086 6.38375L2.83961 5.94066L3.10242 5.53836L3.36523 5.13609L3.60758 4.83254L3.84988 4.52898L4.22258 4.15871L4.59531 3.78844L4.91484 3.53949L5.23438 3.29055L5.57145 3.07137L5.90856 2.85215L6.3782 2.61609L6.84789 2.38L7.42785 2.19016L8.00781 2.00035L8.4375 1.91734L8.86719 1.83434L9.19922 1.80098L9.53125 1.76758L9.94141 1.76242L10.3516 1.75727L10.7812 1.79762ZM6.50367 5.46555L6.40574 5.49535L6.27984 5.56047L6.15395 5.62555L5.90141 5.8618L5.64887 6.09801L5.50867 6.30922L5.36848 6.52047L5.27168 6.77766L5.17488 7.03484L5.14238 7.33547L5.10988 7.63609L5.14129 7.94871L5.17273 8.26133L5.27391 8.61277L5.37508 8.96422L5.5823 9.39391L5.78957 9.82359L6.0616 10.2338L6.33367 10.6439L6.64012 11.015L6.94656 11.3861L7.38895 11.8229L7.83129 12.2597L8.2516 12.5982L8.67188 12.9368L9.18855 13.2807L9.7052 13.6246L10.1291 13.8414L10.5531 14.0583L10.9015 14.1994L11.25 14.3405L11.6992 14.4581L12.1484 14.5757L12.5977 14.5962L13.0469 14.6167L13.3398 14.5546L13.6328 14.4927L13.9062 14.3558L14.1797 14.2189L14.3174 14.0893L14.4551 13.9597L14.5991 13.784L14.7431 13.6082L14.8716 13.337L15 13.0658V12.7923V12.5189L14.9035 12.33L14.807 12.141L14.5421 11.8912L14.2773 11.6414L13.877 11.4465L13.4766 11.2516L13.2061 11.1895L12.9355 11.1273H12.6814H12.4273L12.2684 11.239L12.1094 11.3507L11.8095 11.7965L11.5096 12.2423L11.4407 12.2927L11.3718 12.3431H11.2639H11.1561L10.8419 12.205L10.5276 12.0668L10.1835 11.8703L9.8393 11.6738L9.56809 11.472L9.29688 11.2703L8.9125 10.8989L8.52813 10.5276L8.26066 10.1756L7.99324 9.82359L7.85402 9.59152L7.71484 9.35945L7.715 9.25949L7.71512 9.15953L7.78941 9.04234L7.86371 8.92516L8.04438 8.71031L8.22504 8.49547L8.3275 8.28746L8.43 8.07945L8.44844 7.88754L8.46688 7.69562L8.38184 7.32769L8.29684 6.95973L8.13969 6.6348L7.98258 6.30992L7.81051 6.06875L7.6384 5.82758L7.48531 5.70633L7.33219 5.58508L7.16219 5.50793L6.99219 5.43078L6.79688 5.43328L6.60156 5.43578L6.50367 5.46555Z" fill="#00C958"/>
</g>
<defs>
<clipPath id="clip0_1931_4526">
<rect width="20" height="20" fill="white"/>
</clipPath>
</defs>
</svg>
