<svg width="18" height="18" viewBox="0 0 18 18" fill="none" xmlns="http://www.w3.org/2000/svg">
<path d="M5.02562 12.9698C5.02562 12.9698 8.95193 17.1945 13.0645 17.9245C16.2148 18.4837 17.596 15.7966 17.9529 14.4609C18.0771 13.9949 17.9529 13.5134 17.6115 13.1872C17.2856 12.8611 14.3836 11.5564 13.6852 11.5098C13.2041 11.4787 12.8162 11.6806 12.4747 12.1311L11.7764 13.0164C11.497 13.3736 11.1246 13.4668 10.7832 13.2804C10.0848 12.8921 8.87433 12.0845 7.40003 10.6089C5.92572 9.13336 5.10321 7.92186 4.71524 7.22292C4.51349 6.88121 4.62213 6.50844 4.97906 6.22886L5.86365 5.52992C6.3137 5.17268 6.51544 4.79991 6.48441 4.31842C6.43785 3.60394 5.13425 0.714973 4.80835 0.388799C4.48245 0.0470931 4.00137 -0.0771632 3.5358 0.0470934C2.21668 0.404331 -0.483625 1.78669 0.0750585 4.9397C0.804452 9.04017 5.02562 12.9698 5.02562 12.9698Z" fill="#00C958"/>
</svg>
