<svg width="20" height="20" viewBox="0 0 20 20" fill="none" xmlns="http://www.w3.org/2000/svg">
<path d="M18.7043 17.2848L15.3054 13.8958C16.402 12.4988 16.9971 10.7735 16.9948 8.99743C16.9948 7.41569 16.5258 5.86947 15.647 4.5543C14.7683 3.23913 13.5192 2.21408 12.0579 1.60877C10.5966 1.00347 8.98855 0.84509 7.43721 1.15367C5.88586 1.46225 4.46085 2.22393 3.34239 3.34239C2.22393 4.46085 1.46225 5.88586 1.15367 7.43721C0.84509 8.98855 1.00347 10.5966 1.60877 12.0579C2.21408 13.5192 3.23913 14.7683 4.5543 15.647C5.86947 16.5258 7.41569 16.9948 8.99743 16.9948C10.7735 16.9971 12.4988 16.402 13.8958 15.3054L17.2848 18.7043C17.3777 18.798 17.4883 18.8724 17.6101 18.9231C17.7319 18.9739 17.8626 19 17.9945 19C18.1265 19 18.2572 18.9739 18.379 18.9231C18.5008 18.8724 18.6114 18.798 18.7043 18.7043C18.798 18.6114 18.8724 18.5008 18.9231 18.379C18.9739 18.2572 19 18.1265 19 17.9945C19 17.8626 18.9739 17.7319 18.9231 17.6101C18.8724 17.4883 18.798 17.3777 18.7043 17.2848ZM2.99936 8.99743C2.99936 7.81112 3.35114 6.65146 4.01022 5.66508C4.66929 4.6787 5.60606 3.90991 6.70207 3.45593C7.79807 3.00196 9.00408 2.88317 10.1676 3.11461C11.3311 3.34605 12.3999 3.91731 13.2387 4.75615C14.0775 5.595 14.6488 6.66375 14.8802 7.82726C15.1117 8.99077 14.9929 10.1968 14.5389 11.2928C14.0849 12.3888 13.3162 13.3256 12.3298 13.9846C11.3434 14.6437 10.1837 14.9955 8.99743 14.9955C7.40664 14.9955 5.88101 14.3636 4.75615 13.2387C3.6313 12.1138 2.99936 10.5882 2.99936 8.99743Z" fill="white"/>
</svg>
