<?xml version="1.0" standalone="no"?>
<!DOCTYPE svg PUBLIC "-//W3C//DTD SVG 20010904//EN"
 "http://www.w3.org/TR/2001/REC-SVG-20010904/DTD/svg10.dtd">
<svg version="1.0" xmlns="http://www.w3.org/2000/svg"
 width="700.000000pt" height="700.000000pt" viewBox="0 0 700.000000 700.000000"
 preserveAspectRatio="xMidYMid meet">
<metadata>
Created by potrace 1.14, written by Peter Selinger 2001-2017
</metadata>
<g transform="translate(0.000000,700.000000) scale(0.100000,-0.100000)"
fill="#000000" stroke="none">
<path d="M3407 6986 c-74 -27 -141 -94 -171 -171 -8 -22 -19 -74 -25 -115 -6
-41 -15 -100 -20 -130 -5 -30 -12 -85 -14 -122 -10 -119 -83 -286 -145 -333
-37 -27 -124 -29 -156 -4 -13 11 -27 19 -31 19 -7 0 -77 70 -110 111 -43 51
-84 118 -146 237 -72 139 -128 205 -210 246 -45 22 -66 26 -140 26 l-87 0 -61
-60 c-33 -34 -68 -75 -77 -92 -35 -69 -21 -255 31 -398 14 -38 29 -96 51 -195
11 -47 12 -207 2 -236 -14 -41 -66 -94 -105 -107 -86 -28 -250 57 -482 250
-52 43 -120 91 -150 106 -49 24 -68 27 -151 27 -91 0 -98 -2 -144 -32 -27 -18
-62 -51 -80 -75 -30 -41 -31 -47 -33 -148 -1 -69 3 -115 11 -135 14 -31 76
-119 165 -235 28 -36 66 -86 86 -113 19 -26 51 -68 71 -94 58 -76 78 -126 70
-180 -8 -59 -33 -102 -77 -132 -31 -21 -41 -23 -124 -17 -49 3 -115 12 -145
21 -30 9 -67 18 -82 21 -14 3 -57 14 -95 25 -88 26 -267 59 -318 59 -51 0
-138 -33 -186 -71 -51 -40 -89 -124 -85 -186 7 -95 33 -156 87 -212 50 -49 98
-80 280 -176 184 -99 246 -137 304 -191 38 -34 40 -40 40 -93 0 -70 -25 -124
-68 -147 -82 -43 -107 -54 -122 -54 -9 0 -26 -5 -38 -12 -12 -6 -38 -15 -57
-19 -19 -4 -46 -10 -60 -13 -34 -9 -75 -14 -145 -21 -127 -12 -170 -17 -176
-21 -4 -2 -24 -6 -45 -10 -22 -3 -66 -19 -99 -35 -98 -48 -142 -121 -142 -234
0 -68 20 -137 54 -182 27 -38 147 -98 208 -106 22 -3 52 -10 65 -15 14 -5 86
-12 160 -16 151 -7 233 -15 320 -32 89 -17 143 -74 144 -152 0 -37 -6 -57 -32
-95 -49 -70 -171 -170 -307 -249 -259 -152 -330 -214 -357 -310 -21 -73 -16
-169 10 -205 42 -58 101 -106 153 -123 59 -20 196 -20 273 1 22 6 53 13 69 15
15 2 32 6 37 9 6 3 18 8 27 10 10 2 52 13 93 24 41 11 89 22 105 25 17 2 44 9
60 15 99 33 142 38 186 22 81 -30 125 -129 96 -216 -6 -16 -49 -82 -96 -145
-47 -63 -100 -135 -116 -160 -17 -24 -36 -51 -43 -60 -33 -37 -106 -139 -130
-178 -21 -36 -26 -61 -30 -138 -4 -87 -3 -98 23 -149 55 -113 171 -157 324
-124 59 12 132 58 275 171 184 146 254 200 289 223 45 31 97 40 144 24 89 -29
123 -123 101 -281 -16 -118 -22 -146 -70 -317 -78 -278 -50 -430 92 -506 34
-18 120 -33 161 -28 49 5 129 46 175 89 49 47 74 83 194 284 118 199 184 293
215 310 37 20 135 15 181 -8 46 -24 70 -61 77 -122 3 -25 10 -65 16 -90 10
-49 18 -100 26 -170 3 -25 7 -61 10 -80 3 -19 7 -55 10 -79 18 -151 56 -252
111 -301 40 -34 105 -70 143 -77 14 -2 31 -9 38 -14 8 -7 19 -6 35 2 13 7 32
15 43 16 64 11 150 80 185 149 23 48 56 192 64 289 3 33 8 76 11 95 2 19 7 58
10 85 3 28 11 68 17 90 5 22 12 59 14 83 7 88 71 143 167 145 73 2 106 -15
152 -78 39 -54 166 -257 203 -325 127 -234 264 -327 423 -285 122 32 186 116
194 252 4 85 -9 160 -55 318 -45 151 -61 241 -62 340 -1 149 36 207 141 220
42 5 95 -14 139 -50 104 -84 142 -114 167 -130 17 -10 57 -42 91 -70 178 -151
234 -179 359 -180 113 0 171 25 224 99 31 44 35 56 39 131 6 112 -13 170 -86
270 -33 44 -69 90 -81 103 -11 12 -21 25 -21 27 0 6 -37 59 -116 165 -115 155
-115 155 -118 214 -3 43 1 62 20 94 26 44 78 81 115 83 27 2 333 -72 425 -102
34 -11 65 -19 70 -18 5 2 29 -3 53 -10 66 -19 208 -21 265 -4 59 18 162 110
175 157 4 17 7 62 5 100 -8 139 -66 203 -324 357 -319 189 -427 316 -370 435
39 80 132 105 445 119 72 4 144 11 160 16 17 6 48 12 70 15 22 3 72 20 112 39
111 54 148 116 148 250 -1 90 -16 132 -67 184 -63 64 -155 92 -373 115 -22 2
-70 7 -108 11 -37 4 -70 11 -73 16 -3 5 -17 9 -31 9 -36 0 -170 49 -224 82
-51 31 -65 55 -75 126 -7 57 3 83 50 125 58 52 108 82 394 233 175 93 241 167
264 295 21 122 -46 232 -169 277 -33 12 -82 22 -109 21 -56 0 -257 -42 -424
-88 -67 -18 -152 -34 -205 -37 -83 -6 -93 -4 -124 17 -45 31 -70 75 -77 136
-8 63 15 104 170 310 66 87 133 177 150 201 17 23 41 54 53 69 25 30 34 79 34
185 0 66 -3 82 -27 119 -32 51 -36 55 -93 94 -42 28 -50 30 -140 30 -123 0
-163 -19 -321 -149 -190 -156 -334 -236 -431 -239 -43 -2 -109 46 -132 96 -32
66 -9 275 49 450 52 157 64 311 31 390 -9 21 -44 65 -78 98 l-62 59 -87 0
c-72 0 -94 -4 -136 -25 -94 -47 -139 -102 -243 -300 -29 -55 -69 -122 -89
-149 -45 -61 -126 -146 -139 -146 -6 0 -16 -7 -23 -15 -14 -17 -89 -30 -120
-20 -59 19 -109 86 -156 210 -22 60 -25 80 -39 225 -3 36 -10 79 -15 95 -5 17
-12 56 -15 89 -13 121 -72 214 -164 261 -45 23 -164 28 -214 11z"/>
</g>
</svg>
